<?xml version="1.0" encoding="utf-8"?>
<!-- Generator: Adobe Illustrator 23.0.0, SVG Export Plug-In . SVG Version: 6.00 Build 0)  -->
<svg version="1.1" id="Layer_1" xmlns="http://www.w3.org/2000/svg" xmlns:xlink="http://www.w3.org/1999/xlink" x="0px" y="0px"
	 viewBox="0 0 80.9 87" style="enable-background:new 0 0 80.9 87;" xml:space="preserve">
<style type="text/css">
	.st0{fill:#299AD1;}
	.st1{fill:#1B1C1C;}
	.st2{fill:#C22127;}
	.st3{fill:#C8273A;}
	.st4{fill:#FFFFFF;}
</style>
<path class="st0" d="M417.3-34.3c0,0-0.1,0-0.1,0C417.2-34.3,417.2-34.3,417.3-34.3"/>
<path class="st0" d="M424.8-37L424.8-37C424.8-37,424.8-37,424.8-37L424.8-37z"/>
<polygon class="st1" points="29.2,54.7 29.5,56.5 29.5,57 29.5,57.2 29.5,57.5 28.7,57.9 28.4,57.8 27.6,57.8 27.5,57.5 27.6,57.2 
	27.6,56.4 27.7,56.1 27.6,56.1 27.6,55 26.7,55 26.1,55 25.8,55.1 25.8,57.7 25.5,57.8 24.2,57.8 24.1,57.1 24.2,54.7 24.5,54.1 
	24.7,52.2 24.9,52.1 25.6,52.1 25.8,52.3 25.8,54.3 25.7,54.4 27.7,54.4 28,54.3 28,52.4 28.1,52.3 28.9,52.3 29.2,52.5 "/>
<path class="st1" d="M32.3,54c0.1-0.2,0.3-0.4,0.4-0.5c0.2-0.2,0.4-0.3,0.6-0.4c0.2-0.1,0.4-0.2,0.7-0.3l1.3-0.2
	c0,0.1,0.1,0.1,0.1,0.1c0.1,0,0.2,0,0.2,0c0.1,0,0.1,0,0.2,0c0.1,0,0.1,0,0.2,0c0.1,0,0.1,0,0.1,0c0.6,0.3,1,0.6,1.3,1.1
	c0.3,0.5,0.4,1,0.4,1.6v0.1c-0.2,0.3-0.4,0.5-0.6,0.8c-0.3,0.2-0.5,0.4-0.8,0.4L35,57.3c-0.1,0.1-0.2,0.1-0.2,0.1
	c-0.1,0-0.1,0-0.2,0c-0.1,0-0.1,0-0.2,0h-0.2l-1.9-0.6l-0.1-0.2c-0.1-0.1-0.1-0.3-0.1-0.4c0-0.1,0-0.3,0-0.4c0-0.2,0-0.4,0-0.5
	c0-0.2,0-0.4,0.1-0.6C32.1,54.5,32.1,54.2,32.3,54 M35.1,53.8c-0.1,0-0.2,0-0.3,0.1c-0.1,0.1-0.2,0.1-0.3,0.2
	c-0.1,0.1-0.2,0.1-0.2,0.2c-0.1,0.1-0.2,0.1-0.2,0.2l-0.1,1.1l0.4,0.4h0.2l1.9-0.4l0.5-0.7c-0.1-0.2-0.1-0.4-0.2-0.5
	c-0.1-0.1-0.2-0.2-0.4-0.3C36.1,54.1,36,54,35.8,54c-0.2,0-0.3-0.1-0.5-0.1C35.2,53.8,35.2,53.8,35.1,53.8"/>
<path class="st1" d="M45.8,53.5c0,0.2,0,0.4,0,0.6c0,0.2,0,0.4,0,0.6c0,0.2-0.1,0.4-0.1,0.7l-0.1,0.2l-0.3,1.1L45.1,57
	c0,0,0,0.1-0.1,0.1c0,0-0.1,0.1-0.1,0.1c-0.1,0-0.2,0.1-0.2,0.1c-0.1,0-0.1,0.1-0.2,0.2c-0.1,0.1-0.1,0.1-0.2,0.1
	c-0.1,0-0.1,0.1-0.2,0.1L44,57.8c-0.1,0-0.3,0-0.3,0c-0.1,0-0.2,0-0.3,0c0,0,0,0,0,0c0,0,0,0,0,0c0,0-0.1,0-0.2,0.1c0,0-0.1,0-0.1,0
	c0,0,0,0-0.1,0c-0.1,0-0.1,0-0.1,0c0,0-0.1,0-0.1,0c0,0,0,0-0.1,0h-0.3c-0.2,0-0.3,0-0.5,0c-0.2,0-0.4-0.1-0.5-0.2
	c-0.2-0.1-0.3-0.2-0.5-0.3c-0.1-0.1-0.3-0.3-0.4-0.4c-0.1-0.1-0.2-0.3-0.3-0.5c-0.1-0.2-0.1-0.4-0.1-0.6L40,55.1v-1.1
	c0,0,0-0.1,0-0.1v-0.2v-1c0.1,0,0.2-0.1,0.3-0.1c0.2,0,0.3,0,0.4,0c0.1,0,0.2,0,0.3,0h0.8c0,0,0,0,0.1,0.1l0.1,0.1
	c0,0.2,0,0.3-0.1,0.5c0,0.1,0,0.3-0.1,0.4c0,0.1,0,0.3,0,0.4c0,0.1,0,0.3,0,0.4l0,0.1c0,0,0,0.1,0.1,0.1c0,0.2,0,0.3,0,0.4v0.4
	c0,0.1,0,0.1,0,0.2c0,0.1,0,0.2,0,0.3l0,0.5l0.2,0.2c0,0,0.1,0.1,0.1,0.1c0,0,0.1,0.1,0.1,0.1l0.3,0.1c0,0,0.1,0,0.1,0
	c0,0,0.1,0,0.2,0l0.4,0c0,0,0.1,0,0.2,0c0.1,0,0.2,0,0.3-0.1c0.1,0,0.2-0.1,0.2-0.1c0.1-0.1,0.1-0.2,0.1-0.3l0-0.1l0,0
	c0-0.1,0-0.2,0.1-0.4c0-0.1,0-0.3,0-0.4c0-0.1,0-0.3,0.1-0.4c0-0.1,0-0.2,0.1-0.3v0v0v-0.1c0,0,0-0.1,0-0.1c0,0,0-0.1,0.1-0.1
	c0,0,0-0.1-0.1-0.1c0,0,0-0.1,0-0.2v-1.4c0.1,0,0.1,0,0.1,0c0,0,0.1,0,0.2-0.1c0.1,0,0.1,0,0.2,0c0,0,0.1,0,0.2,0l0.3,0
	c0.1,0,0.2,0,0.3,0c0,0,0,0.1,0.1,0.1c0,0,0,0,0.1,0.1C45.8,53.1,45.8,53.3,45.8,53.5"/>
<path class="st1" d="M52.7,56.4c0,0.1,0,0.2,0,0.3c0,0.1,0,0.3-0.1,0.3c-0.1,0.1-0.2,0.2-0.3,0.2c-0.1,0.1-0.2,0.1-0.4,0.2
	c-0.1,0.1-0.2,0.1-0.3,0.1c-0.1,0-0.1,0.1-0.2,0.1c0,0-0.1,0-0.1,0c0,0,0,0-0.1,0c0,0,0,0,0,0c0,0,0,0-0.1,0c0,0-0.1,0-0.1,0
	c-0.1,0-0.1,0-0.2,0c-0.1,0-0.1,0-0.2,0c-0.1,0-0.3,0-0.4,0c-0.1,0-0.3,0-0.5,0c-0.1,0-0.1,0-0.2,0c-0.1,0-0.1,0-0.2,0
	c-0.1,0-0.2,0-0.3,0c-0.1,0-0.1,0-0.2,0c-0.1,0-0.1,0-0.2,0c-0.1,0-0.1,0-0.2,0c-0.1,0-0.1,0-0.1-0.1c0,0-0.1,0-0.1-0.1
	c0,0,0,0,0-0.1c0,0,0,0,0,0c0,0,0,0,0,0c0,0,0,0,0-0.1c0,0,0,0,0,0h0c0,0,0,0,0-0.1c0,0,0-0.1,0-0.1c0-0.1,0-0.1,0-0.2
	c0-0.1,0-0.1,0-0.2c0,0,0,0,0.1,0c0.1,0,0.1,0,0.2,0c0.1,0,0.1,0,0.1,0c0.1,0,0.3,0,0.4,0c0.1,0,0.2,0,0.3,0c0.2,0,0.3,0,0.5-0.1
	c0.1,0,0.3-0.1,0.6-0.1c0,0,0.1,0,0.1,0c0.1,0,0.2,0,0.3-0.1c0.1,0,0.2-0.1,0.3-0.1c0.1-0.1,0.1-0.2,0.1-0.3c0,0,0-0.1,0-0.1
	c0,0-0.1-0.1-0.1-0.1c0,0-0.1-0.1-0.1-0.1c0,0,0-0.1,0-0.1l-0.3-0.1l-0.8-0.3c-0.1,0-0.2,0-0.3-0.1c-0.1,0-0.1-0.1-0.2-0.2
	c-0.1-0.1-0.1-0.1-0.2-0.2c-0.1,0-0.2-0.1-0.3-0.1L48.5,55c-0.1-0.1-0.1-0.1-0.2-0.2c0-0.1-0.1-0.2-0.1-0.3c0,0,0,0,0-0.1
	c0,0,0-0.1,0-0.1s0-0.1,0-0.1c0,0,0,0,0,0c0-0.1,0-0.1,0.1-0.2c0.1-0.1,0.1-0.1,0.1-0.2c0.1,0,0.1-0.1,0.2-0.1c0,0,0.1-0.1,0.1-0.1
	c0.1-0.1,0.2-0.2,0.4-0.3c0.2-0.1,0.3-0.2,0.5-0.2l0.6-0.3c0.1,0,0.3-0.1,0.4-0.1c0.1,0,0.2-0.1,0.4-0.1c0,0,0.1,0,0.1,0
	c0,0,0.1,0,0.1,0c0.1,0,0.2,0,0.3,0c0.1,0,0.2,0,0.3,0c0.1,0,0.1,0.1,0.2,0.1c0,0,0.1,0,0.2,0.1v0.1c0,0,0,0.1,0,0.1c0,0,0,0,0,0.1
	c0,0,0,0.1,0,0.1c-0.1,0.1-0.1,0.1-0.2,0.1h-0.2l-0.2,0.1c-0.1,0-0.2,0-0.3,0.1c-0.1,0-0.2,0.1-0.3,0.1c-0.1,0-0.1,0.1-0.2,0.1
	c-0.1,0-0.2,0.1-0.3,0.1h-0.1c-0.2,0.1-0.3,0.2-0.3,0.3c0,0.1-0.1,0.2-0.1,0.3c0,0.2,0,0.2,0.1,0.3c0,0,0.1,0.1,0.1,0.1l0.5,0.3
	c0.1,0.1,0.3,0.2,0.5,0.3c0.2,0.1,0.4,0.2,0.6,0.2c0,0,0,0,0.1,0.1l0.4,0.2c0,0,0.1,0.1,0.1,0.1c0,0,0.1,0,0.2,0.1c0,0,0,0.1,0,0.1
	c0,0,0.1,0.1,0.1,0.1c0,0,0.1,0.1,0.1,0.1c0,0,0,0.1,0.1,0.1C52.7,56.2,52.7,56.3,52.7,56.4"/>
<path class="st1" d="M60.2,56.8C60.2,56.9,60.2,56.9,60.2,56.8l0,0.1c0,0,0,0,0,0.1c0,0-0.1,0.1-0.1,0.1l-0.5,0l-1.1,0.2l-0.5,0.1
	h-2.5v-0.6l-0.1-0.1l0.1-0.4v-1.6l-0.1-0.1v-1.8l0.2-0.2l0.1,0h1.1l0.2,0.1l1.3-0.1l1-0.1l0.5,0.1v0.5l-0.2,0.1l-2.7,0.2l-0.1,0.1
	l0.2,1l0.1,0.3h0.3l1-0.1l0.3,0h0.8l0.1,0.3L59.3,55l-0.5,0.1h-0.4l-1.4,0.2v0.3l0.2,1l0.1,0h2.6l0.2,0.1
	C60.2,56.8,60.2,56.8,60.2,56.8"/>
<path class="st1" d="M46.2,82.7c-0.1,0-0.1,0-0.3,0c-0.6-0.1-1.3-0.4-1.7-1c-0.4-0.6-0.4-1.5,0.3-2.7c0,0,0.2-0.2,0.2-0.3
	c1.1-0.4,2.1-0.8,3.1-1.2l1.5-0.7c0.5-0.2,1-0.5,1.5-0.7c2.1-1,4-2.2,5.9-3.4c1-0.6,1.9-1.3,2.8-2c0.9-0.7,1.8-1.4,2.6-2.2
	c1.7-1.5,3.3-3.1,4.8-4.8c1.5-1.7,2.8-3.6,4-5.5c1.2-1.9,2.2-3.9,3-6c0.8-2.1,1.4-4.3,1.7-6.5c0.7-4.4,0.5-8.9-0.8-13.2
	c-0.6-2.1-1.5-4.2-2.5-6.2c-1-2-2.2-3.9-3.6-5.6c-2.8-3.5-6.2-6.5-10.1-8.7c-3.9-2.2-8.2-3.8-12.6-4.4c-4.4-0.7-9-0.5-13.3,0.6
	c-4.4,1-8.5,2.9-12.2,5.5c-3.7,2.6-6.9,5.8-9.4,9.5C8.8,26.8,6.8,31,5.7,35.3c-0.5,2.2-0.9,4.4-1,6.6c0,0.5,0,1.1,0,1.6
	c0,0.3,0,0.5,0,0.8l0.1,0.8c0,0.3,0.1,0.5,0.1,0.8c0,0.3,0.1,0.5,0.1,0.8l0.2,0.8c0.1,0.3,0.1,0.5,0.2,0.8c1.2,4.4,2.9,8.7,5.3,12.4
	c1.2,1.9,2.6,3.6,4.2,5.1c0.8,0.8,1.6,1.5,2.5,2.2c0.9,0.7,1.8,1.3,2.8,1.8c0.2,0.1,0.5,0.3,0.7,0.4l0.5,0.3l0.2,0.1
	c0.1,0.1,0.3,0.2,0.4,0.2l0.9,0.4c0.3,0.1,0.6,0.3,0.9,0.4c0.3,0.1,0.6,0.3,0.9,0.4c0,0,0.3,0.2,0.9,0.5c0.6,0.3,1.4,0.7,2.4,1.1
	c1,0.4,2.1,0.8,3.2,1.3c1.1,0.4,2.3,0.8,3.4,1.2c1.8,0.6,3,0.9,3.7,1.3c0.7,0.3,0.8,0.6,0.6,0.7c-0.4,0.3-2.4,0.5-4.9,0.3
	c0.2,0.1-2.6-0.2-5.6-0.8c-1.5-0.3-2.9-0.7-4-1.1c-0.5-0.2-1-0.3-1.3-0.4c-0.3-0.1-0.5-0.2-0.5-0.2c-0.7-0.3-1.3-0.6-1.9-0.9
	c-0.3-0.2-0.6-0.3-1-0.5l-0.2-0.1L19.1,74c-0.3-0.1-0.5-0.3-0.8-0.5L17.5,73l-0.8-0.5c-0.5-0.3-1-0.7-1.5-1.1c-4-3-7.3-6.9-9.6-11.2
	c-1.2-2.2-2.1-4.4-2.9-6.7c-0.2-0.6-0.4-1.1-0.6-1.7C2,51.2,1.8,50.6,1.6,50l-0.2-0.9l-0.1-0.4l-0.1-0.5L1,47.3l-0.1-1l-0.1-0.5
	l0-0.5l-0.1-1l0-0.9c0-0.3,0-0.6,0-0.9l0-0.9c0-0.3,0-0.6,0.1-0.9c0-0.6,0.1-1.2,0.2-1.9c0.3-2.5,0.9-4.9,1.6-7.2
	c1.5-4.7,3.9-9,6.9-12.9c3-3.9,6.7-7.2,10.9-9.8c4.2-2.6,8.8-4.4,13.7-5.3c4.8-0.9,9.8-0.9,14.7,0.1c4.8,0.9,9.5,2.8,13.6,5.4
	c4.2,2.6,7.8,6,10.7,10c1.5,2,2.7,4.1,3.8,6.3c1.1,2.2,1.9,4.5,2.6,6.9c0.6,2.4,1,4.9,1.1,7.4c0.1,2.5-0.1,5-0.6,7.4
	c-0.9,4.9-2.8,9.5-5.4,13.7c-2.6,4.2-5.8,7.9-9.5,11c-1.8,1.6-3.8,3.1-5.8,4.4c-2,1.3-4.1,2.5-6.3,3.6c-0.5,0.3-1.1,0.5-1.6,0.8
	l-1.6,0.7C48.4,81.8,47.3,82.3,46.2,82.7"/>
<path class="st1" d="M33.7,63.9h-0.1c0,0-0.1,0-0.1,0c0,0-0.1,0-0.1,0c0,0,0,0,0-0.1c0-0.1,0-0.1,0.1-0.2c0.1-0.1,0.1-0.1,0.2-0.2
	l0.1,0l0.2,0c0,0,0,0,0.1,0H34c0.1,0,0.1,0,0.2,0c0.1,0,0.1,0,0.2,0c0,0,0.1,0,0.1,0l0.8-0.2l0.4,0l0.2-0.1l0.1,0
	c0.1,0.1,0.2,0.2,0.2,0.3c0,0.1,0.1,0.2,0.1,0.4c0,0.1,0,0.1,0,0.2c0,0.1,0,0.2,0,0.3c0,0.1,0,0.2,0,0.3c0,0.1,0.1,0.1,0.1,0.2
	c0,0.1,0.1,0.1,0.1,0.2c0,0.1,0,0.2,0,0.3c0,0,0,0.1,0,0.1l0,0.2v0.3c0,0-0.1,0-0.1,0.1c0,0,0,0,0,0.1c0,0,0,0,0,0.1c0,0,0,0-0.1,0
	h0l-0.2,0c-0.1,0-0.2,0-0.3,0.1c-0.1,0-0.2,0.1-0.3,0.1c-0.1,0-0.1-0.1-0.1-0.2c0-0.1,0-0.2,0-0.3c0-0.1,0.1-0.3,0.2-0.5
	c0,0,0-0.1,0-0.1c0,0,0,0,0,0c0,0,0,0,0-0.1c0,0,0,0,0-0.1l0-1.3l-0.1,0.1c-0.2,0-0.3,0-0.4,0c-0.1,0-0.3,0.1-0.4,0.1
	c0,0-0.1,0.1-0.1,0.1c0,0,0,0-0.1,0c0,0,0,0-0.1,0l-0.1,0.1C34.1,63.9,33.9,63.9,33.7,63.9 M34.9,66.7c0.1,0,0.3,0,0.4,0
	s0.3,0,0.4,0c0.1,0,0.2,0,0.3,0l0.3,0c0,0,0.1,0,0.1,0.1c0,0.1,0.1,0.1,0.1,0.1v0.1L36.3,67l-0.2,0l-0.2,0l-1.4,0.1l0,0h0
	c-0.1,0-0.1,0-0.1,0c0,0,0,0-0.1,0l-0.4,0.1h-0.3l0-0.1l0-0.2c0,0,0.1,0,0.1-0.1s0.1,0,0.2-0.1c0.1,0,0.1,0,0.2-0.1
	c0.1,0,0.1,0,0.1,0c0-0.1,0-0.3,0-0.4c0-0.2,0-0.3,0-0.5c0-0.1,0-0.1,0-0.2c0-0.1,0-0.1,0-0.2c0-0.1,0-0.1,0-0.2
	c0-0.1,0-0.1,0.1-0.1c0,0,0,0,0,0c0,0,0,0,0.1,0c0,0,0,0,0,0l0.3,0l0.2,0.1c0,0,0,0,0,0.1c0,0.1,0,0.1-0.1,0.2l-0.2,0.4l0.1,0.2
	c0,0,0,0.1,0,0.1c0,0,0,0.1,0,0.1l0,0.2C34.7,66.7,34.8,66.7,34.9,66.7"/>
<path class="st1" d="M41.5,62.5l0.1,0.3l0,0.3c-0.1,0.1-0.1,0.1-0.1,0.1c0,0,0,0.1,0,0.1l-0.1,0.1c0,0.1,0,0.2,0,0.3v0.2v0.2
	c0,0.1,0,0.2,0,0.3c0,0,0,0.1,0,0.1c0,0,0,0.1,0,0.1c0,0,0,0.1,0,0.2c0,0.1,0,0.1,0,0.1l-0.1,0.1H41l-0.5-0.1c0,0-0.1,0-0.1-0.1
	c0,0,0-0.1-0.1-0.2c0-0.1,0-0.1,0-0.2c0-0.1,0-0.1,0-0.1l0-0.5l-0.1-0.1c0,0,0-0.1,0-0.1c0,0,0-0.1,0-0.1c0,0,0-0.1,0-0.1
	c0,0,0-0.1-0.1-0.1h0l-0.9,0.1l-0.4,0.1l-0.1,0l0-0.2l0.1-0.1c0.1-0.1,0.1-0.1,0.2-0.2c0.1,0,0.2-0.1,0.3-0.1h0.1
	c0.1,0,0.2,0,0.3-0.1c0.1,0,0.2-0.1,0.4-0.1c0.1,0,0.2-0.1,0.4-0.1c0.1,0,0.2,0,0.3,0L41.5,62.5z M41.8,65.7c0,0,0.1,0,0.2,0
	c0.1,0,0.1,0,0.2,0c0.1,0.1,0.2,0.1,0.2,0.1c0.1,0,0.1,0.1,0.1,0.1c0,0,0,0,0.1,0.1c0,0,0,0.1,0.1,0.1c0,0.1-0.1,0.1-0.1,0.2
	c-0.1,0.1-0.1,0.1-0.1,0.1c0,0-0.1,0-0.1,0s0,0,0,0c0,0,0,0,0,0l-0.1,0.4l0.1,0l0.1,0.1c0,0,0.1,0,0.1,0.1c0,0,0.1,0,0.1,0
	c0,0,0,0,0.1,0.1c0,0,0.1,0.1,0.2,0.1c0.1,0,0.1,0.1,0.2,0.1c0.1,0,0.1,0.1,0.2,0.1c0,0,0,0,0,0.1c0,0,0,0.1,0,0.1c0,0,0,0.1,0,0.1
	c0,0,0,0-0.1,0c0,0-0.1,0-0.1,0c0,0-0.1,0-0.2,0l-0.3-0.1l-0.2-0.1l-0.2-0.1c-0.1,0-0.1,0-0.2-0.1c-0.1,0-0.2,0-0.2,0c0,0,0,0-0.1,0
	c0,0,0,0,0,0l-0.2,0.2L40.8,68L40.7,68c0,0,0,0.1,0,0.1c0,0,0,0-0.1,0.1l-0.1,0.1h0l-0.2-0.1c-0.1,0-0.2-0.1-0.2-0.1
	c0,0-0.1,0-0.1,0c0,0,0,0,0,0c0,0,0,0,0,0h0l-0.1-0.3l0.1-0.2l0.5-0.5l0.3-0.1v-0.1l0.3-0.3c0,0,0-0.1,0-0.1c0,0,0,0,0.1-0.1
	c0,0,0,0,0.1-0.1c0,0,0-0.1,0.1-0.1l0.2-0.4L41.8,65.7z M42.3,62.1c0,0,0.1-0.1,0.1-0.1l0.5,0.3l-0.1,1.1c0,0.1,0,0.1,0,0.1
	c0,0,0,0,0,0.1l0.1,0.3c0,0,0,0,0,0.1c0,0,0,0.1,0,0.1l0,0.2c0,0,0,0.1,0,0.1c0,0.1,0,0.1,0,0.2c0,0.1,0,0.1,0,0.2
	c0,0.1,0,0.1,0,0.1l-0.2,0.3l-0.4-0.2l0-0.1v-1.5l0-0.2l0-0.1l-0.1-0.9C42.2,62.2,42.3,62.2,42.3,62.1"/>
<path class="st1" d="M47.1,63.4l-0.1,0.2L47,63.9c0.1,0.1,0.2,0.2,0.3,0.2c0.1,0.1,0.2,0.1,0.3,0.2l0.1,0.2l0.1,0.1l0.2,0.3v0.1
	L48,65h0l-0.2,0.1c0,0-0.1,0-0.1,0c-0.1,0-0.1,0-0.1-0.1c0,0-0.1-0.1-0.1-0.2l-0.3-0.2c0,0-0.1-0.1-0.1-0.1c0,0-0.1-0.1-0.2-0.1
	l-0.1-0.1c-0.1,0-0.1,0-0.2,0.1c0,0,0,0.1-0.1,0.1l-0.2,0.4c-0.1,0-0.1,0-0.1,0.1c0,0,0,0,0,0c0,0,0,0,0,0c0,0,0,0.1-0.1,0.1
	l-0.2,0.4c0,0-0.1,0-0.1,0c0,0-0.1,0-0.1,0.1h-0.1c0,0-0.1,0-0.1,0c-0.1,0-0.1-0.1-0.2-0.1c-0.1,0-0.2-0.1-0.2-0.2
	c-0.1-0.1-0.1-0.2-0.1-0.3c0,0,0,0,0.1-0.1c0-0.1,0.1-0.1,0.2-0.2c0.1-0.1,0.1-0.1,0.2-0.2c0.1-0.1,0.1-0.1,0.2-0.2l0.1-0.2l0.2-0.2
	l0.3-0.4v-0.1l0.1-0.1l0-0.1l0.1-0.2c-0.1,0-0.1,0-0.1,0c0,0-0.1,0-0.1,0c-0.1,0-0.1,0-0.1,0c0,0-0.1,0-0.1,0c0,0-0.1,0-0.1,0
	c0,0-0.1,0-0.1,0l0,0l-0.5,0c0-0.1,0-0.1,0-0.1c0-0.1,0-0.1,0.1-0.1c0,0,0.1-0.1,0.1-0.2l0.2-0.1c0,0,0.1,0,0.2-0.1
	c0.1,0,0.2,0,0.2,0l0.4,0h0.3l0.1-0.1c0.2,0,0.3,0,0.5,0c0.2,0,0.4,0,0.5,0h0.2c0.1,0,0.1,0,0.1,0.1c0,0.1,0,0.1-0.1,0.2
	c0,0.1-0.1,0.1-0.1,0.1h0c-0.1,0-0.1,0.1-0.2,0.1c-0.1,0-0.2,0-0.3,0.1C47.1,63.2,47.1,63.3,47.1,63.4 M48.6,65.8L48.6,65.8
	c0.1,0,0.2,0.1,0.2,0.2c0,0.1,0.1,0.2,0.1,0.3c0,0.1,0,0.2,0.1,0.3c0,0.1,0,0.2,0,0.3v0.1c0,0,0,0.1,0,0.1c0,0,0,0.1,0,0.1
	c0,0,0,0.1,0.1,0.1c0,0,0,0.1,0.1,0.1v0.1c0,0.1,0,0.2,0,0.3c0,0.1,0,0.1,0,0.2C49.1,68,49,68,49,68h0l-0.2,0c-0.2,0-0.3,0-0.4,0
	c-0.1,0-0.2,0-0.3,0.1c-0.1,0-0.2,0-0.3,0.1c-0.1,0-0.2,0-0.4,0h-0.1c0,0-0.1,0-0.1,0l-0.5,0c0,0-0.1,0-0.1-0.1c0,0-0.1,0-0.1,0
	L46.4,68l0.1-1c0,0,0,0,0,0c0,0,0,0,0,0v-0.1c0,0,0-0.1,0-0.1c0,0,0-0.1,0-0.1c0,0,0.1-0.1,0.1-0.1l0.2-0.4L47,66h0c0,0,0.1,0,0.1,0
	c0,0,0.1,0,0.1,0c0,0,0.1,0,0.1,0c0,0,0,0,0.1,0.1c0,0,0,0.1,0,0.2c0,0.1,0,0.1,0,0.1c0,0,0,0.1,0,0.1l0.6,0l0.1-0.1
	c0-0.1,0-0.2-0.1-0.2c0-0.1,0-0.1,0-0.2c0,0,0,0,0-0.1c0,0,0,0,0-0.1l0.3-0.3L48.6,65.8z M48.2,66.8C48.1,66.8,48.1,66.8,48.2,66.8
	c-0.1,0-0.1,0-0.1,0c0,0,0,0-0.1,0c-0.1,0-0.1,0-0.2,0c-0.1,0-0.1,0-0.2,0l-0.1,0V67v0.7l0.1,0.1l0.8-0.1c0,0,0-0.1,0-0.1
	c0,0,0,0,0-0.1c0-0.1,0-0.1,0-0.2c0,0,0-0.1,0-0.1c0,0,0-0.1,0-0.1c0,0,0-0.1,0-0.2L48.2,66.8C48.2,66.8,48.2,66.8,48.2,66.8
	 M48.4,62.3c0,0,0.1-0.1,0.1-0.1l0.5,0.3l-0.1,1.1c0,0.1,0,0.1,0,0.1c0,0,0,0,0,0.1l0.1,0.3c0,0,0,0,0,0.1c0,0,0,0.1,0,0.1l0,0.2
	c0,0,0,0.1,0,0.1c0,0.1,0,0.1,0,0.2c0,0.1,0,0.1,0,0.2c0,0.1,0,0.1,0,0.1l-0.2,0.3l-0.4-0.2l0-0.1v-1.5l0-0.2l0-0.1l-0.1-0.9
	C48.3,62.4,48.4,62.3,48.4,62.3"/>
<path class="st1" d="M37.9,43.9c0.1,0,0.1,0,0.2,0.1c0.3,0.4,0.6,0.9,0.8,1.6c0.2,0.6,0.1,1.6-1.4,2.3c-0.1,0-0.3,0.1-0.4,0.1
	c-1.4-0.4-2.8-1-4-2.2c-0.6-0.6-1.1-1.5-1.3-2.6c-0.1-0.5-0.1-1.1,0-1.5c0-0.5,0.2-1.1,0.5-1.6c0.2-0.4,0.4-0.6,0.6-0.9
	c1.3-1.4,2.7-2,4-2.5c0,0,0.4-0.1,1.2-0.3c0.4-0.1,0.8-0.1,1.4-0.2c0.3,0,0.6,0,1,0c0.3,0.1,0.6,0.1,1,0.2c0.4,0.1,0.7,0.2,1.1,0.4
	c0.4,0.2,0.8,0.5,1.1,0.9c0.4,0.4,0.6,0.9,0.8,1.3c0.1,0.5,0.2,0.9,0.2,1.3c0,0.4,0,0.8-0.1,1.2c0,0.3-0.2,0.8-0.3,1.2
	c-0.3,0.7-0.8,1.3-1.2,1.7c-1.5,1.5-3,1.8-3.8,1.8c-0.8-0.2-0.9-0.4-0.7-0.6c0.2-0.2,0.6-0.4,1.2-0.8c0.5-0.5,1.2-1.1,1.6-2
	c-0.1,0.1,0.2-0.4,0.4-1.1c0-0.2,0.1-0.2,0-0.5c0-0.2,0-0.5,0-0.7c-0.1-0.5-0.2-0.6-0.3-0.6c-0.1,0-0.5-0.1-0.9-0.1
	c-0.4,0-0.8,0.1-1.2,0.3c-0.8,0.3-1.4,0.6-1.4,0.6c-0.8,0.3-1.6,0.8-2,1.2c0,0.1-0.1,0.1-0.1,0.2c0,0,0,0,0,0.1c0,0.1,0,0.1,0,0.2
	c0,0.1,0.1,0.2,0.3,0.5C36.3,43.2,37.1,43.7,37.9,43.9"/>
<path class="st1" d="M20.6,42.3c0,0-0.1,0-0.1,0c-0.3-0.1-0.6-0.3-0.8-0.6c-0.2-0.3-0.3-0.8,0.2-1.5c0,0,0.1-0.1,0.2-0.1
	c1.3-0.3,2.7-0.5,3.9-0.5c0.8-0.1,1.6-0.1,2.4-0.2l1-0.1c0.1,0,0.1,0,0.1,0l0.2-0.1l0.5-0.1c0.3-0.1,0.7-0.3,1.1-0.4
	c0,0,0.1,0,0.3-0.1c0.1,0,0.2-0.1,0.4-0.1c0,0,0.1,0,0.1,0l0.1,0c0,0,0,0,0,0c0,0.1,0,0.2,0,0.2c-0.1,0.7-0.1,1.6-0.2,2.7
	c0,0.3,0,0.5-0.1,0.8c0,0.2-0.1,0.3-0.1,0.5c-0.1,0.3-0.2,0.7-0.3,1c-0.1,0.7-0.4,1.4-0.7,2c-0.8,2-1.2,2.5-1.4,2.3
	c-0.2-0.3,0-1.4,0.2-2.7c-0.1,0.1,0.2-1.4,0.3-2.9c0.1-0.5,0-0.5,0-0.6c0-0.1,0-0.2-0.1-0.2c-0.1,0-0.1,0.1-0.1,0l-0.3,0
	c-0.3,0-0.6,0.1-0.9,0.1c-0.8,0.1-1.6,0.1-2.4,0.2C22.9,41.9,21.7,42.1,20.6,42.3"/>
<path class="st1" d="M23.7,29.8c0.1,0,0.2-0.1,0.4,0c0.7,0.2,1.5,0.6,1.8,1.3c0.3,0.7,0.1,1.7-0.6,2.9c0,0-0.2,0.2-0.2,0.3
	c-2,0.6-3.9,1.8-5.5,3.4c-1.1,1.1-2,2.3-2.8,3.7c-0.3,0.6-0.6,1.2-0.8,1.7c-0.2,0.5-0.4,1.1-0.5,1.5c0,0,0,0.1,0,0.2
	c0,0.1,0,0.1,0,0.2c0,0.1,0,0.2,0,0.2c0,0.2,0,0.3,0,0.5c0,0.1,0.1,0.3,0.3,0.5c0.4,0.4,1.4,0.7,2.5,0.7c1.1,0,2.3-0.2,3.3-0.6
	c1.7-0.7,2.6-1.6,3.2-2.1c0.5-0.6,0.8-0.7,0.9-0.4c0.1,0.3,0.1,1.1-0.4,2c-0.5,1-1.4,2-2.6,2.9c0.1-0.1-0.5,0.4-1.7,1
	c-1.2,0.5-2.9,1-5,0.8c-1-0.1-2.2-0.5-3.1-1.4c-1-0.9-1.5-2.1-1.6-3.1c-0.1-1-0.1-1.7,0-2.2c0.1-0.5,0.1-0.7,0.1-0.7
	c0.1-0.4,0.2-0.8,0.3-1.1c0.1-0.3,0.3-0.7,0.4-1c0.3-0.6,0.6-1.2,0.9-1.8c1-1.7,2.2-3.3,3.6-4.7C18.4,32.2,20.9,30.6,23.7,29.8"/>
<path class="st1" d="M54.6,40.6c0,0-0.1,0-0.1,0c-0.2-0.1-0.6-0.3-0.8-0.6c-0.2-0.3-0.2-0.7,0.2-1.4c0,0,0.1-0.1,0.2-0.1
	c1.2-0.3,2.4-0.4,3.6-0.5c0.7,0,1.5-0.1,2.2-0.1l0.9-0.1c0,0,0.1,0,0.1,0l0.2,0l0.4-0.1c0.3-0.1,0.7-0.2,1-0.4c0,0,0.1,0,0.3-0.1
	c0.1,0,0.2-0.1,0.3-0.1c0,0,0.1,0,0.1,0l0.1,0c0,0,0,0,0,0c0,0.1,0,0.1,0,0.2c0,0.6-0.1,1.5-0.2,2.5c0,0.2,0,0.5-0.1,0.7
	c0,0.1-0.1,0.3-0.1,0.5c-0.1,0.3-0.2,0.6-0.2,1c-0.1,0.6-0.4,1.2-0.6,1.8c-0.7,1.9-1.1,2.3-1.3,2.1c-0.1-0.3,0-1.3,0.2-2.4
	c-0.1,0.1,0.2-1.3,0.3-2.7c0.1-0.5,0-0.5,0-0.6c0-0.1,0-0.1-0.1-0.2c0,0-0.1,0.1-0.1,0l-0.3,0c-0.3,0-0.6,0.1-0.9,0.1
	c-0.8,0.1-1.5,0.1-2.2,0.2C56.7,40.2,55.6,40.3,54.6,40.6"/>
<path class="st1" d="M57.2,28.9c0.1,0,0.2-0.1,0.4,0c0.7,0.1,1.5,0.6,1.8,1.3c0.3,0.7,0.1,1.7-0.6,2.9c0,0-0.2,0.2-0.2,0.3
	c-2,0.6-3.9,1.9-5.3,3.5l-0.7,0.8c-0.2,0.3-0.4,0.6-0.6,0.8c-0.2,0.2-0.3,0.5-0.5,0.8c-0.2,0.3-0.3,0.5-0.5,0.8
	c-0.3,0.6-0.6,1.1-0.8,1.7c0,0,0,0.1-0.1,0.2c-0.1,0.1-0.1,0.3-0.2,0.6c-0.1,0.2-0.1,0.5-0.2,0.7c0,0.2,0,0.4,0,0.5
	c0,0.1,0.2,0.4,0.5,0.5c0.3,0.2,0.8,0.3,1.3,0.4c1.1,0.1,2.3-0.1,3.3-0.4c1.7-0.6,2.7-1.5,3.2-2c0.5-0.5,0.8-0.7,0.9-0.4
	c0.1,0.3,0.1,1.1-0.4,2.1c-0.5,1-1.5,2-2.7,2.8c0.1-0.1-0.5,0.4-1.8,0.9c-0.6,0.2-1.4,0.4-2.3,0.5c-0.9,0.1-1.9,0.1-3-0.3
	c-1.1-0.3-2.3-1.3-2.8-2.6c-0.5-1.2-0.5-2.4-0.4-3.2c0.1-0.8,0.3-1.5,0.4-1.9c0.1-0.4,0.2-0.6,0.2-0.6c0.3-0.7,0.6-1.3,0.9-1.9
	c0.4-0.6,0.7-1.2,1.1-1.8l0.8-1.1l0.9-1C51.9,31.5,54.4,29.8,57.2,28.9"/>
<path class="st1" d="M67.7,47.6C67.7,47.6,67.7,47.7,67.7,47.6c-0.3,0.1-0.7,0.2-1.1,0.2c-0.5,0-1-0.1-1.6-0.5c0,0-0.1-0.1-0.1-0.1
	c0,0,0.1-0.6,0.2-1.5c0.1-0.9,0.3-2,0.4-3.1c0.1-1.2,0.2-2.3,0.3-3.2C65.9,38.6,66,38,66,38s0.1-0.4,0.3-0.9
	c0.2-0.5,0.5-1.1,0.8-1.6c0.5-0.9,0.9-1,1.1-0.9c0.2,0.2,0.3,0.6,0.4,1.1c0-0.1,0.1,0.6,0.1,1.3c0,0.7,0.1,1.4,0.1,1.4
	s-0.2,2.3-0.5,4.5c-0.1,1.2-0.3,2.3-0.4,3.2C67.8,47,67.7,47.6,67.7,47.6"/>
<path class="st2" d="M67.9,33c-1.3,0.3-1.9-0.8-1.8-1.5c0.3-1.5,0.1-2.6,0-3.4C65.6,26.1,71.5,32.3,67.9,33"/>
<path class="st1" d="M28.2,21.8c0.2,0.1,0.3,0.1,0.5,0.2c0.2,0.1,0.3,0.2,0.4,0.4c0,0.2,0,0.3-0.1,0.4c-0.1,0.1-0.1,0.2-0.2,0.3
	c-0.1,0.1-0.2,0.2-0.2,0.2c-0.1,0.1-0.2,0.2-0.2,0.3L28,23.7c0,0-0.1,0-0.2,0.1c-0.1,0-0.2,0-0.3,0.1c-0.1,0-0.2,0-0.2,0.1
	c-0.1,0-0.1,0.1-0.1,0.1l-0.4-0.2c-0.2-0.1-0.4-0.2-0.5-0.3c-0.1-0.2-0.1-0.4-0.1-0.7c0-0.2,0-0.3,0-0.5c0-0.1,0-0.3,0.1-0.4
	l-0.5,0.1l-0.3-0.2c0,0,0-0.1-0.1-0.1c0,0,0-0.1,0-0.1c0-0.1,0-0.1,0-0.2c0,0,0-0.1,0.1-0.1l0.1-0.1l0.1,0.1c0,0,0,0,0.1,0
	c0.1,0,0.2,0,0.2-0.1c0.1,0,0.2-0.1,0.2-0.1l0.7,0.1l0.3-0.1l0.2-0.1c0.1,0,0.2,0,0.4,0c0.1,0,0.3,0,0.4-0.1c0.1,0,0.3-0.1,0.4-0.1
	c0.1,0,0.3,0,0.4,0c0.1,0,0.1,0,0.2,0.1c0,0.1,0,0.1,0,0.2s0,0.1,0,0.2c0,0.1,0,0.1,0,0.2c-0.1,0.1-0.3,0.1-0.6,0.1
	c-0.1,0-0.3,0-0.4,0c-0.1,0-0.3,0-0.4,0L28.2,21.8z M28,20c0,0.1,0.1,0.1,0.1,0.1c0,0,0,0.1,0,0.1c0,0,0,0.1,0,0.1v0.2L28,20.6
	c-0.1,0-0.2,0.1-0.4,0.1c-0.1,0.1-0.2,0.1-0.4,0.1c-0.1,0-0.1,0-0.2,0l-0.9,0c0,0-0.1,0-0.1,0c0,0,0-0.1,0-0.1c0-0.1,0-0.2,0.1-0.3
	l0.2-0.3l0.4,0h0.5L28,20z M27.4,23.2C27.4,23.2,27.4,23.1,27.4,23.2c0.1-0.1,0.1-0.1,0.1-0.1c0,0,0-0.1,0.1-0.2l-0.2-0.3l-0.3-0.2
	H27l-0.2,0.2V23c0.1,0,0.1,0.1,0.1,0.1c0,0.1,0.1,0.1,0.2,0.1c0.1,0,0.1,0,0.1,0C27.3,23.2,27.3,23.2,27.4,23.2 M28.8,25.2v0.4
	l-0.1,0.3l0.1,0.2l0.1,0l0.4-0.1c0.1,0,0.1,0,0.2-0.1c0,0,0.1-0.1,0.2-0.1h0.2v0c0,0,0-0.1,0.1-0.1c0.1,0,0.1,0,0.2,0
	c0.1,0,0.1,0,0.2,0.1c0.1,0,0.1,0.1,0.2,0.1c0,0,0.1,0.1,0.1,0.1V26l-0.1,0.3L30,26.4l-0.1,0.1l-0.7,0.1l-0.2,0.1l-0.6,0.1L28,26.8
	l-0.7-0.1c0,0,0-0.1,0.1-0.1c0-0.1,0-0.1,0-0.2c0-0.1,0-0.2,0-0.2c0-0.1,0-0.1,0-0.2c0,0,0.1-0.1,0.1-0.2c0,0,0-0.1,0-0.1
	c0,0,0-0.1,0-0.1c0-0.1,0-0.1,0.1-0.2c0-0.1,0.1-0.1,0.1-0.2c0-0.1,0.1-0.1,0.1-0.2l0.1-0.3c0-0.1,0.1-0.1,0.2-0.1
	c0.1,0,0.2-0.1,0.3-0.1c0.1,0,0.1,0,0.2,0.1c0,0,0.1,0,0.1,0h0.1c0,0,0,0,0.1,0V25.2z M29.9,20.3c0,0,0.1-0.1,0.2-0.1l0.4,0.3h0.1
	v1.1l0.5-0.2h0.2h0.1c0.1,0,0.1,0,0.2,0.1c0.1,0.1,0.1,0.1,0.1,0.2v0.1L31.5,22l-0.4,0c-0.1,0.1-0.1,0.1-0.2,0.1h-0.2h-0.1l0,0.3
	c0,0.1,0,0.1,0,0.2c0,0,0,0.1-0.1,0.1l0.1,0.4v0c0,0,0,0.1,0,0.2c0,0.1,0,0.1,0,0.2v0l0,0.5c0,0,0,0.1,0,0.1v0c0,0,0,0.1,0,0.1
	c0,0,0,0.1,0.1,0.1l-0.1,0.2h-0.1l-0.4-0.1l-0.1-0.1V22l0.1-0.3l0-0.1l-0.1-1.1C29.8,20.4,29.8,20.3,29.9,20.3"/>
<path class="st1" d="M52.7,20.2c0.2,0,0.3,0,0.4,0c0.1,0,0.3,0,0.4,0.1c0,0.1,0.1,0.2,0.1,0.3c0.1,0.1,0.1,0.2,0.1,0.3l-0.9,1.3
	l0.3,0.1c0.1,0.1,0.2,0.2,0.3,0.2c0.1,0,0.3,0.1,0.4,0.2l0.1,0.1L54,23l0.3,0.2l-0.2,0.3l-0.1,0.1H54l-0.2-0.1
	c-0.1,0-0.1-0.1-0.2-0.1c-0.1,0-0.1-0.1-0.2-0.2L52.9,23c0,0-0.1,0-0.2,0c-0.1,0-0.2,0-0.3,0c0,0-0.1,0-0.1,0.1c0,0-0.1,0.1-0.1,0.1
	c0,0-0.1,0.1-0.1,0.1c0,0-0.1,0.1-0.1,0.1c-0.1,0-0.1,0.1-0.2,0.1c0,0.1-0.1,0.1-0.1,0.2c0,0.1,0,0.1-0.1,0.2c0,0.1-0.1,0.1-0.1,0.1
	l-0.4,0.3c0,0-0.1,0-0.1,0c0,0,0,0,0,0c0,0,0,0,0,0c0,0,0,0,0,0h-0.1c-0.1,0-0.1-0.1-0.2-0.1c-0.1,0-0.2-0.1-0.3-0.2l-0.4-0.4
	c0,0,0.1-0.1,0.1-0.1c0,0,0.1-0.1,0.1-0.1c0,0,0-0.1,0.1-0.1c0,0,0.1-0.1,0.1-0.2l0.1-0.2l0.5-0.5l0.2-0.4v-0.1l0.2-0.1l0-0.1
	L52.7,20.2L52.7,20.2z M55.1,24.4l0.1,0.3l0,0.2c0,0,0,0,0,0.1c0,0,0,0.1,0.1,0.1c0,0,0.1,0,0.1,0.1l0,0.1c0,0.1,0,0.2,0,0.3
	c0,0.1,0,0.1,0,0.2c0,0.1,0,0.1,0,0.2c0,0.1,0,0.1,0,0.2c0,0,0,0.1-0.1,0.2c0,0.1-0.1,0.2-0.1,0.3l-0.1,0.1h-0.2l-0.4-0.1
	c0,0-0.1,0-0.1-0.1c0,0,0-0.1,0-0.1c0-0.1,0-0.1,0-0.2c0-0.1,0-0.1,0-0.1l0-0.5l-0.1-0.1c0,0,0-0.1,0-0.1c0,0,0-0.1,0-0.1
	c0,0,0-0.1,0-0.1c0,0,0-0.1-0.1-0.1l-0.8,0.1l-0.4,0.1l-0.1,0l0-0.2l0.1-0.1c0,0,0.1-0.1,0.2-0.1c0.1,0,0.2-0.1,0.3-0.1h0.1
	c0.1,0,0.2,0,0.3-0.1c0.1,0,0.2-0.1,0.3-0.1c0.1,0,0.2-0.1,0.3-0.1c0.1,0,0.2,0,0.3,0H55.1z M54.8,20.2c0.1,0,0.1-0.1,0.2-0.1
	l0.6,0.4l-0.1,1.3c0,0.1-0.1,0.1-0.1,0.2c0,0,0,0-0.1,0.1l0.1,0.4c0,0,0,0.1,0,0.1c0,0,0,0.1,0,0.1l0,0.3c0,0,0,0.1,0,0.2
	c0,0.1,0,0.1,0,0.2c0,0.1,0,0.2,0,0.2c0,0.1,0,0.1,0,0.2L55.3,24l-0.5-0.2l0-0.1v-1.8l0-0.3l0-0.2l-0.1-1.1
	C54.7,20.3,54.7,20.2,54.8,20.2"/>
<path class="st3" d="M46.8,26.8L46.8,26.8C46.8,26.8,46.8,26.8,46.8,26.8"/>
<path class="st3" d="M47.1,26.3L47.1,26.3C47.1,26.4,47.1,26.4,47.1,26.3"/>
<path class="st3" d="M47.7,22.3c0,0,0-0.1,0-0.1L47.7,22.3z"/>
<path class="st3" d="M35.5,27C35.5,27,35.5,27,35.5,27C35.4,27,35.5,27,35.5,27"/>
<path class="st3" d="M41.4,16.9L41.4,16.9C41.4,16.9,41.4,16.9,41.4,16.9"/>
<polygon class="st3" points="46.1,18.9 46.1,18.9 46.1,18.9 "/>
<path class="st3" d="M46.3,19c-0.1,0-0.1-0.1-0.2-0.2l0,0.1L46.3,19z"/>
<path class="st3" d="M47,26.6C47,26.6,47,26.6,47,26.6C47,26.6,47,26.6,47,26.6"/>
<path class="st3" d="M47.8,23.8C47.8,23.8,47.8,23.8,47.8,23.8c0-0.1,0,0,0-0.2c0,0,0-0.1,0-0.2c0-0.1,0-0.2,0-0.4c0-0.1,0,0,0.1,0
	c-0.1-0.3,0-0.3-0.2-0.5l0-0.2c0,0.2-0.1,0-0.2-0.2c0,0,0,0,0,0c0,0,0,0,0,0c0,0,0,0,0,0c0,0,0,0,0,0c0,0,0,0,0,0c0,0,0-0.1,0-0.1
	c0,0,0,0,0.1,0.1l0,0.1c0.1,0.1,0.1,0.1,0.1,0.1c0,0,0,0,0-0.1c0,0,0,0,0,0c0,0,0,0,0-0.1l0.1-0.1l0,0l0-0.4c0-0.1-0.1-0.1-0.1-0.2
	c0-0.1-0.1-0.1-0.1-0.2c-0.1-0.1-0.2-0.3-0.3-0.4c0.1,0.1,0.1,0,0.2,0c0,0.1,0.1,0.3,0.2,0.5c0-0.1,0-0.1,0-0.1l-0.2-0.3
	c0.1,0,0-0.1,0-0.2c-0.1,0.1-0.2-0.2-0.3-0.3c0,0,0.1,0,0.1,0.2c0-0.2-0.2-0.2-0.3-0.4c0,0,0,0.1,0.1,0.1c-0.1-0.1-0.2-0.3-0.1-0.3
	l0,0c0-0.1-0.1-0.1-0.1-0.2c-0.1-0.1-0.1-0.2-0.2-0.2c-0.1-0.2-0.2-0.3-0.3-0.3c0,0,0.1,0,0.1,0c-0.1-0.1-0.3-0.1-0.4-0.1
	c0,0-0.1-0.1-0.1-0.1c0-0.1,0.1-0.2,0.2-0.1c0-0.1-0.1-0.1-0.2-0.2c0,0,0,0.2,0,0.1c-0.1-0.2-0.1-0.1-0.2-0.3c0,0.1-0.1,0.1-0.2,0
	c0,0,0.1-0.1,0.1-0.1c-0.1,0-0.2-0.1-0.3-0.1c0.1,0,0.1-0.1,0-0.1c0,0-0.2-0.2-0.3-0.2l0.1,0.1c-0.2-0.2-0.4-0.1-0.6-0.2
	c0,0,0.2-0.1,0-0.2c0,0-0.2,0-0.3,0c0,0,0,0,0,0c-0.1-0.1-0.2-0.1-0.3-0.2c0.2,0,0.4,0,0.5,0c-0.1-0.1,0-0.1-0.2-0.1
	c0-0.1,0.1,0,0.2,0L44,17.2c0,0-0.1,0-0.2,0c-0.1,0-0.2,0-0.2,0c0.2,0,0.3,0.1,0.5,0.1c0,0.1-0.3,0-0.6-0.1
	c-0.1-0.1,0.1-0.1,0.1-0.1c0,0-0.3-0.1-0.3-0.1l0.1,0c-0.2-0.1-0.3,0-0.5-0.1c-0.1,0-0.2-0.1-0.2-0.1c0.1,0.1,0.1,0.2,0,0.3
	c-0.1,0-0.1,0-0.2-0.1l0,0l0,0l0,0c-0.1,0-0.2,0-0.2,0c0-0.1,0.2-0.1,0.1-0.2c0,0-0.1,0-0.1,0c-0.1,0,0-0.1-0.1-0.1
	c0,0.1-0.3-0.1-0.1,0c-0.2,0-0.2-0.1-0.3-0.1c0,0,0,0.1-0.1,0.1c-0.1,0-0.1,0-0.2,0c0,0,0,0,0,0c-0.1,0-0.1,0-0.2,0
	c-0.1,0-0.1,0-0.2,0c-0.1,0-0.2,0-0.4,0c0,0-0.2,0-0.1-0.1c0,0-0.1,0-0.2,0.1c-0.2,0,0.2,0,0.1-0.1c0,0-0.2,0.1-0.4,0.1
	c0,0.1,0.3,0,0.4-0.1c0,0,0,0.1-0.1,0.1c-0.3,0-0.7,0.1-1,0.2c-0.2,0-0.7,0.2-1,0.3c0,0-0.1,0.1-0.1,0.1c-0.2,0.1-0.3,0.2-0.5,0.3
	l-0.1,0l0,0c-0.2,0.1-0.3,0.2-0.5,0.3c0,0,0,0,0,0l-0.1,0.1c0,0,0,0,0,0c0,0,0,0,0,0c0,0,0,0,0,0.1c-0.1,0.1-0.1,0.1-0.2,0.2
	c0,0,0,0,0,0c0,0,0,0,0,0c-1.4,1.2-2.3,2.9-2.3,4.9c0,0.1,0,0.3,0,0.4c0,0.1-0.1,0.1-0.1,0.1c0,0,0,0.1,0,0.2c0,0.1,0,0.1,0,0.2
	c0,0.1,0,0.3,0.1,0.4c0,0.1,0,0-0.1,0c0,0.1,0.1,0.2,0.1,0.3l0,0c0.1,0.2,0.1,0.4,0.1,0.6c0,0.1,0,0.2,0.1,0.3
	c0,0.1,0.1,0.2,0.1,0.3l0-0.1c0,0.1,0,0.1,0,0.2c0.1,0.1-0.1-0.3,0-0.2c0,0.1,0.1,0.3,0.1,0.4c0.1,0.2,0.2,0.3,0.2,0.4
	c0.1,0.2,0-0.1,0.1,0.1l0,0.1l0.1,0c0.1,0.1,0.1,0.2,0,0.2c0,0-0.1-0.1-0.1-0.1c0.1,0.1,0.3,0.3,0.3,0.4l-0.1-0.1
	c0.3,0.4,0.7,0.8,1.1,1.1l0,0c0.3,0.2,0.2,0.2,0.5,0.4l0,0c0.1,0,0.2,0.1,0.3,0.1c-0.1,0,0.1,0.1,0,0.1c0.4,0.2,0.2,0.1,0.4,0.1
	l0,0.1c0.1,0,0.1,0,0.3,0.1c-0.2,0,0.1,0.1-0.1,0.1c0.1,0.1,0.2,0.1,0.2,0.1c0,0,0.1,0,0.1,0c0,0,0,0,0,0c0,0,0,0,0,0
	c0,0,0.1,0,0.1,0c0,0,0,0,0,0c-0.1-0.1,0.2,0,0.3,0c0.1,0.1,0.2,0.2,0.5,0.3c0,0,0,0-0.1,0c0.1,0.1,0.2,0,0.4,0.1
	c0.1-0.1,0.2,0,0.2,0l-0.3,0c0.2,0,0.3-0.1,0.6,0c0,0-0.1,0-0.2,0c0.1,0,0.2,0,0.2,0c0,0.1-0.4,0-0.6,0c0.1,0.1,0.4,0,0.2,0.1
	c0.1,0,0.2,0,0.2,0c0.1,0,0.2,0,0.3,0l0,0c0,0,0.1,0,0.2,0L40.7,30c0.2,0,0.3,0.1,0.5,0c-0.4,0-0.1-0.1-0.2-0.1
	c0.4-0.1,0.3,0.1,0.7,0.1c-0.1,0-0.2,0-0.1,0c0.1,0,0.2,0,0.3,0c0.3-0.1-0.1,0,0.1-0.1c0.1,0,0.2,0,0.3-0.1l0,0.1
	c0.4,0,0.1-0.1,0.4-0.2l-0.1,0.1l0.2-0.1l0,0.1c0.2-0.1,0.2-0.1,0.4-0.1c-0.1,0,0-0.1,0.2-0.2c0.1,0,0,0.1,0.2,0
	c0,0-0.1,0.1-0.2,0.1c0,0,0,0,0,0.1c0.1,0,0.2,0,0.2-0.1c0,0,0,0,0,0c0.1-0.1,0.3-0.2,0.5-0.3c0,0,0,0,0,0c0,0,0,0,0,0
	c0,0,0.1,0,0.1,0c0.1-0.1,0.2-0.1,0.3-0.1c0,0,0.1,0,0.1,0c0.1-0.1,0.2-0.2,0.3-0.2c0,0,0,0,0.1-0.1c0.1-0.1,0.2-0.1,0.3-0.2
	c0.1-0.1,0.2-0.1,0.3-0.2l0.2,0c0.1-0.2-0.2,0.1,0-0.2c0.2-0.2,0.1,0,0.2-0.1c0.1-0.1,0.1-0.3,0.4-0.5c0,0,0,0,0,0
	c0.1-0.1,0.1-0.1,0.2-0.2c0.1-0.1,0.1-0.2,0.1-0.2l0.1-0.1c0,0,0,0,0,0.1c0.2-0.1,0-0.2,0.2-0.4c0-0.1,0.1-0.1,0.1-0.1c0,0,0,0,0,0
	l0.1-0.1c0,0,0,0,0,0c0-0.1,0.1-0.2,0.1-0.3l0,0c0-0.1,0-0.2,0-0.2c0.1-0.1,0,0,0,0c0-0.1,0-0.1,0-0.2c0,0,0,0,0,0
	c0,0,0,0.1-0.1,0.2c0.1,0,0.1-0.1,0.1-0.2c0-0.1,0-0.2,0.1-0.3l0,0.2c0.1-0.1,0.1-0.2,0.3-0.4c0,0-0.3,0.3-0.2,0.1
	c0-0.1,0.1-0.1,0.1-0.2c0,0,0.1-0.1,0.1-0.2l0.1,0c0-0.1,0-0.1,0-0.2c0-0.2,0.1-0.2,0.2-0.2c0.1-0.3-0.1,0.2-0.1-0.1
	c0.1-0.2,0.1-0.4,0-0.6c0-0.1,0,0,0.1,0L47.8,23.8z M47.3,25.8c0-0.1,0-0.1,0.1-0.2C47.4,25.7,47.4,25.8,47.3,25.8"/>
<path class="st3" d="M47.5,21.9c0,0,0-0.1,0-0.2C47.5,21.8,47.5,21.9,47.5,21.9"/>
<path class="st3" d="M41.7,30C41.7,30,41.7,30,41.7,30C41.7,30,41.7,30,41.7,30"/>
<path class="st3" d="M47.7,22.2C47.7,22.2,47.6,22.2,47.7,22.2C47.6,22.2,47.7,22.2,47.7,22.2"/>
<path class="st3" d="M44.9,28.9L44.9,28.9C44.9,28.9,44.9,28.9,44.9,28.9L44.9,28.9z"/>
<path class="st3" d="M42.4,16.8C42.4,16.8,42.4,16.8,42.4,16.8C42.4,16.8,42.4,16.8,42.4,16.8"/>
<path class="st3" d="M44.7,17.7C44.7,17.7,44.7,17.7,44.7,17.7C44.7,17.7,44.7,17.7,44.7,17.7"/>
<path class="st4" d="M46.1,20.6c-0.6,1.5-2,2.2-3.5,2.4c-0.4,0.1-0.8,0.2-1.3,0.3c-0.4-0.1-0.9-0.2-1.3-0.3
	c-1.5-0.2-2.9-0.8-3.5-2.4c-0.3,1.8,1.4,3.2,3.1,3.4c0.1,0,0.2,0,0.3,0c-0.1,0.1-0.2,0.2-0.3,0.3c-0.3,0.1-0.7,0.2-1,0.4
	c-0.1,0.1-0.2,0.1-0.3,0.2c-0.1,0.1-0.2,0.3-0.3,0.4c0,0.1,0,0.3,0,0.4c0.1,0.3,0.4,0.5,0.7,0.6c0.6,0.3,1.3,0.5,2,0.6
	c0.1,0,0.2,0,0.2,0c0.6-0.1,0.7-0.3,0.8-0.4c0,0,0.1,0,0.1,0c0.4,0,1.1-0.1,1.9-0.4c0.2-0.1,0.5-0.3,0.6-0.4
	c0.1-0.1,0.2-0.2,0.2-0.3c0-0.1,0.1-0.2,0.1-0.3c0-0.1,0-0.2-0.1-0.3c-0.1-0.1-0.2-0.2-0.4-0.3c-0.2-0.1-0.4-0.2-0.6-0.2
	c-0.2-0.1-0.4-0.1-0.6-0.1c0,0-0.1,0-0.1,0c0.1,0,0.1,0,0.2,0C44.6,23.8,46.4,22.4,46.1,20.6 M42.9,24.8c0.7,0.2,0.2,0.8,0.2,0.8
	l-0.1,0l-0.1,0.1c0,0-0.3,0.2-0.8,0.4c0,0-0.1,0-0.1,0.1c-0.2,0.1-0.3,0.1-0.4,0.1c0,0,0,0,0,0c-0.1,0-0.1,0-0.2,0L40.9,26
	c0,0-1.6-0.1-1.3-0.6C39.8,25,42.2,24.6,42.9,24.8"/>
</svg>
