<svg id="Layer_1" data-name="Layer 1" xmlns="http://www.w3.org/2000/svg" viewBox="0 0 144.94 87"><defs><style>.cls-1{fill:#fece07;}</style></defs><polygon points="46.11 33.53 39.09 33.53 39.09 25.13 63.08 25.13 63.08 33.53 56.06 33.53 56.06 62.4 46.11 62.4 46.11 33.53"/><rect x="1.41" y="25.13" width="9.9" height="37.27"/><polygon points="36.66 25.13 24.15 25.13 11.31 42.36 23.48 42.36 36.66 25.13"/><polygon points="27.52 42.36 15.36 42.36 26.47 59.23 26.45 59.23 28.52 62.4 40.72 62.4 27.52 42.36"/><polygon points="121.75 45.92 121.75 44.76 121.75 34.95 121.75 33.59 121.75 25.13 111.77 25.13 111.77 62.4 121.75 62.4 121.75 55 121.75 54.34 121.75 45.92"/><path d="M139.29,29.36q-4.28-4.23-11.61-4.23h-3.14v8.46h2.66q6.12,0,6.13,6.18t-6.13,6.15h-2.66v8.42h3.14q7.33,0,11.61-4.17a14,14,0,0,0,4.07-10.4,14,14,0,0,0-4.07-10.41"/><path class="cls-1" d="M99,29.41a19.83,19.83,0,0,0-26.33,0,16.6,16.6,0,0,0-5.23,9.12h9.77a8.88,8.88,0,0,1,1.84-3.18,9.6,9.6,0,0,1,13.57,0,8.88,8.88,0,0,1,1.84,3.18h9.77A16.6,16.6,0,0,0,99,29.41"/><path d="M105.2,41.68H63.61v6.93h3.72a16.61,16.61,0,0,0,5.34,9.74,19.76,19.76,0,0,0,26.32,0,16.56,16.56,0,0,0,5.34-9.74h3.73V41.68Z"/></svg>