<?xml version="1.0" encoding="utf-8"?>
<!-- Generator: Adobe Illustrator 26.3.1, SVG Export Plug-In . SVG Version: 6.00 Build 0)  -->
<svg version="1.1" id="Layer_1" xmlns="http://www.w3.org/2000/svg" xmlns:xlink="http://www.w3.org/1999/xlink" x="0px" y="0px"
	 viewBox="0 0 78.4 87" style="enable-background:new 0 0 78.4 87;" xml:space="preserve">
<style type="text/css">
	.st0{fill:#211F20;}
	.st1{fill-rule:evenodd;clip-rule:evenodd;fill:#211F20;}
</style>
<g>
	<polygon class="st0" points="30.1,85.9 27.8,85.9 27.8,81.6 30.1,81.6 30.1,82.2 28.6,82.2 28.6,83.3 29.9,83.3 29.9,83.9 
		28.6,83.9 28.6,85.3 30.1,85.3 	"/>
	<path class="st0" d="M33,82.9h-0.8c0-0.2,0-0.4-0.1-0.5c-0.1-0.2-0.2-0.3-0.4-0.3c-0.3,0-0.5,0.1-0.5,0.4c0,0.1,0,0.3,0.1,0.4
		s0.2,0.1,0.3,0.2c0.5,0.3,0.8,0.5,1,0.7s0.4,0.5,0.4,0.9s-0.1,0.7-0.4,0.9c-0.2,0.2-0.6,0.3-1,0.3c-0.9,0-1.3-0.4-1.3-1.3v-0.3h0.8
		v0.3c0,0.5,0.2,0.7,0.5,0.7s0.5-0.2,0.5-0.5c0-0.2-0.1-0.4-0.3-0.6s-0.5-0.3-0.7-0.5c-0.3-0.2-0.5-0.4-0.6-0.6s-0.2-0.4-0.2-0.7
		c0-0.8,0.4-1.1,1.3-1.1c0.6,0,0.9,0.2,1.1,0.6C33,82.2,33,82.5,33,82.9"/>
	<polygon class="st0" points="33.5,82.2 33.5,81.6 36.2,81.6 36.2,82.2 35.4,82.2 35.4,85.9 34.5,85.9 34.5,82.2 	"/>
	<rect x="37" y="85.2" class="st0" width="0.8" height="0.8"/>
	<path class="st0" d="M42.4,85.9H40c0-0.3,0-0.5,0.1-0.7c0.1-0.3,0.3-0.7,0.8-1.2l0.4-0.4c0.2-0.2,0.3-0.3,0.3-0.4
		c0.1-0.1,0.1-0.3,0.1-0.5c0-0.3-0.1-0.5-0.4-0.5c-0.2,0-0.3,0.1-0.4,0.2c0,0.1-0.1,0.3-0.1,0.6H40v-0.1c0-0.4,0.1-0.6,0.2-0.8
		c0.2-0.4,0.5-0.5,1.1-0.5c0.3,0,0.6,0.1,0.8,0.3c0.2,0.2,0.3,0.5,0.3,0.8c0,0.4-0.2,0.8-0.5,1.2l-0.6,0.7c-0.3,0.3-0.4,0.5-0.4,0.8
		h1.5C42.3,85.4,42.3,85.9,42.4,85.9z"/>
	<path class="st0" d="M43,84.8v-2c0-0.8,0.4-1.2,1.2-1.2s1.2,0.4,1.2,1.2v2c0,0.8-0.4,1.3-1.2,1.3C43.4,86,43,85.6,43,84.8
		 M43.8,82.8v1.9c0,0.4,0.1,0.6,0.4,0.6c0.2,0,0.4-0.2,0.4-0.6v-1.9c0-0.4-0.1-0.6-0.4-0.6C43.9,82.2,43.8,82.4,43.8,82.8"/>
	<path class="st0" d="M46.8,85.9v-3h-1v-0.6c0.7,0,1.1-0.3,1.2-0.8h0.6v4.3L46.8,85.9L46.8,85.9z"/>
	<path class="st0" d="M48.8,84.8v-2c0-0.8,0.4-1.2,1.2-1.2s1.2,0.4,1.2,1.2v2c0,0.8-0.4,1.3-1.2,1.3C49.2,86,48.8,85.6,48.8,84.8
		 M49.5,82.8v1.9c0,0.4,0.1,0.6,0.4,0.6c0.2,0,0.4-0.2,0.4-0.6v-1.9c0-0.4-0.1-0.6-0.4-0.6C49.7,82.2,49.5,82.4,49.5,82.8"/>
	<path class="st0" d="M13.9,47c0-0.6-0.1-1.2-0.4-1.6c-0.3-0.4-0.6-0.7-1.2-0.7c-0.6,0-1,0.2-1.3,0.6c-0.3,0.4-0.4,0.8-0.4,1.3
		c0,0.7,0.2,1.2,0.7,1.6c0.4,0.4,1,0.8,1.6,1c0.7,0.3,1.4,0.6,2.1,0.9c0.8,0.3,1.5,0.7,2.1,1.2c0.7,0.5,1.2,1.1,1.6,1.9
		c0.4,0.8,0.7,1.8,0.7,3.1c0,2.2-0.6,3.9-1.9,4.9s-3.1,1.5-5.4,1.5c-1.1,0-2.1-0.1-3-0.3s-1.6-0.5-2.2-1c-0.6-0.5-1-1.1-1.3-1.8
		C5.4,59,5.2,58.1,5.2,57v-0.7h5.2v0.5c0,0.9,0.2,1.5,0.5,1.9s0.8,0.5,1.3,0.5c0.6,0,1-0.2,1.3-0.6c0.3-0.4,0.4-0.9,0.4-1.4
		c0-0.7-0.2-1.2-0.6-1.6c-0.4-0.4-0.9-0.7-1.6-1c-0.6-0.3-1.3-0.6-2-0.9c-0.7-0.3-1.4-0.7-2-1.2C7,52,6.5,51.4,6.1,50.6
		c-0.4-0.8-0.6-1.8-0.6-3c0-2.1,0.6-3.8,1.7-4.9c1.1-1.1,2.8-1.7,5-1.7c2.4,0,4.1,0.5,5.1,1.5c1.1,1,1.6,2.7,1.6,4.9h-5V47z"/>
	<path class="st0" d="M26.5,56.7c0,1,0.1,1.7,0.4,2.1c0.3,0.3,0.7,0.5,1.2,0.5s0.9-0.2,1.2-0.5c0.3-0.3,0.4-1,0.4-2.1V41.5h5.4v13.8
		c0,1.5-0.2,2.7-0.5,3.7s-0.8,1.8-1.3,2.4c-0.6,0.6-1.3,1-2.2,1.2c-0.9,0.2-1.9,0.3-3,0.3s-2.1-0.1-3-0.3s-1.6-0.6-2.2-1.2
		c-0.6-0.6-1-1.4-1.3-2.4s-0.5-2.2-0.5-3.7V41.5h5.4C26.5,41.5,26.5,56.7,26.5,56.7z"/>
	<polygon class="st0" points="45,41.5 47,53.9 47.2,53.9 49.4,41.5 57,41.5 57,62.5 52,62.5 52,46.8 52,46.8 49,62.5 45.2,62.5 
		42.4,46.8 42.2,46.8 42.2,62.5 37.2,62.5 37.2,41.5 	"/>
	<path class="st0" d="M59.2,47c0.3-1.4,0.7-2.5,1.2-3.4c0.6-0.9,1.3-1.5,2.3-1.9c0.9-0.4,2.1-0.6,3.5-0.6c1.4,0,2.5,0.2,3.5,0.6
		c0.9,0.4,1.7,1,2.3,1.9c0.6,0.9,1,2,1.2,3.4c0.3,1.4,0.4,3.1,0.4,5c0,2-0.1,3.6-0.4,5s-0.7,2.5-1.2,3.4c-0.6,0.9-1.3,1.5-2.3,1.9
		c-0.9,0.4-2.1,0.6-3.5,0.6s-2.5-0.2-3.5-0.6c-0.9-0.4-1.7-1-2.3-1.9s-1-2-1.2-3.4c-0.3-1.4-0.4-3.1-0.4-5
		C58.8,50,58.9,48.3,59.2,47 M64.4,55.5c0,0.9,0.1,1.7,0.2,2.2c0.1,0.6,0.3,0.9,0.5,1.2c0.2,0.2,0.6,0.3,1,0.3s0.7-0.1,1-0.3
		c0.2-0.2,0.4-0.6,0.5-1.2c0.1-0.6,0.2-1.3,0.2-2.2s0.1-2.1,0.1-3.5s0-2.6-0.1-3.5c0-0.9-0.1-1.7-0.2-2.2c-0.1-0.6-0.3-0.9-0.5-1.2
		c-0.2-0.2-0.6-0.3-1-0.3s-0.7,0.1-1,0.3c-0.2,0.2-0.4,0.6-0.5,1.2c-0.1,0.6-0.2,1.3-0.2,2.2s-0.1,2.1-0.1,3.5S64.4,54.6,64.4,55.5"
		/>
	<path class="st0" d="M44,10.3c-3.4-0.3-4.3,2.8-4.4,2.9c1.8-2.4,3.5-2.4,4.3-2.2c0.2,0,0.4-0.1,0.4-0.3v-0.1
		C44.2,10.4,44.2,10.3,44,10.3 M44,10.3c-3.4-0.3-4.3,2.8-4.4,2.9c1.8-2.4,3.5-2.4,4.3-2.2c0.2,0,0.4-0.1,0.4-0.3v-0.1
		C44.2,10.4,44.2,10.3,44,10.3 M44,10.3c-3.4-0.3-4.3,2.8-4.4,2.9c1.8-2.4,3.5-2.4,4.3-2.2c0.2,0,0.4-0.1,0.4-0.3v-0.1
		C44.2,10.4,44.2,10.3,44,10.3 M44,10.3c-3.4-0.3-4.3,2.8-4.4,2.9c1.8-2.4,3.5-2.4,4.3-2.2c0.2,0,0.4-0.1,0.4-0.3v-0.1
		C44.2,10.4,44.2,10.3,44,10.3 M44,10.3c-3.4-0.3-4.3,2.8-4.4,2.9c1.8-2.4,3.5-2.4,4.3-2.2c0.2,0,0.4-0.1,0.4-0.3v-0.1
		C44.2,10.4,44.2,10.3,44,10.3 M44,10.3c-3.4-0.3-4.3,2.8-4.4,2.9c1.8-2.4,3.5-2.4,4.3-2.2c0.2,0,0.4-0.1,0.4-0.3v-0.1
		C44.2,10.4,44.2,10.3,44,10.3 M44,10.3c-3.4-0.3-4.3,2.8-4.4,2.9c1.8-2.4,3.5-2.4,4.3-2.2c0.2,0,0.4-0.1,0.4-0.3v-0.1
		C44.2,10.4,44.2,10.3,44,10.3 M44,10.3c-3.4-0.3-4.3,2.8-4.4,2.9c1.8-2.4,3.5-2.4,4.3-2.2c0.2,0,0.4-0.1,0.4-0.3v-0.1
		C44.2,10.4,44.2,10.3,44,10.3 M44,10.3c-3.4-0.3-4.3,2.8-4.4,2.9c1.8-2.4,3.5-2.4,4.3-2.2c0.2,0,0.4-0.1,0.4-0.3v-0.1
		C44.2,10.4,44.2,10.3,44,10.3 M44,10.3c-3.4-0.3-4.3,2.8-4.4,2.9c1.8-2.4,3.5-2.4,4.3-2.2c0.2,0,0.4-0.1,0.4-0.3v-0.1
		C44.2,10.4,44.2,10.3,44,10.3 M44,10.3c-3.4-0.3-4.3,2.8-4.4,2.9c1.8-2.4,3.5-2.4,4.3-2.2c0.2,0,0.4-0.1,0.4-0.3v-0.1
		C44.2,10.4,44.2,10.3,44,10.3 M44,10.3c-3.4-0.3-4.3,2.8-4.4,2.9c1.8-2.4,3.5-2.4,4.3-2.2c0.2,0,0.4-0.1,0.4-0.3v-0.1
		C44.2,10.4,44.2,10.3,44,10.3 M44,10.3c-3.4-0.3-4.3,2.8-4.4,2.9c1.8-2.4,3.5-2.4,4.3-2.2c0.2,0,0.4-0.1,0.4-0.3v-0.1
		C44.2,10.4,44.2,10.3,44,10.3 M56.2,33.9L56.2,33.9c0.1-0.1,0.1-0.3,0.2-0.4C56.4,33.6,56.4,33.8,56.2,33.9 M56.7,33.1
		c0.1-0.2,0.2-0.4,0.3-0.7C56.9,32.6,56.8,32.9,56.7,33.1 M50.5,32.1c0.1,0,0.2,0.1,0.3,0.1C50.8,32.2,50.7,32.1,50.5,32.1
		 M33.8,35.3l-0.5,0.4C33.5,35.5,33.5,35.4,33.8,35.3c0.4-0.3,0.8-0.6,1.1-0.9C34.5,34.7,34.2,35,33.8,35.3 M31.7,35.8
		c-0.1,0.1-0.1,0.1-0.2,0.1C31.5,35.9,31.6,35.9,31.7,35.8c0.3-0.2,0.6-0.4,0.9-0.6C32.2,35.4,31.9,35.6,31.7,35.8 M29.4,35.7
		c0.6-0.4,1.2-0.8,1.8-1.2C30.6,34.9,30,35.3,29.4,35.7 M27.2,35.6c0.2,0,0.4,0,0.7-0.1C27.7,35.6,27.5,35.6,27.2,35.6 M26.9,35.5
		c0.1,0,0.3,0.1,0.4,0.1C27.1,35.6,27,35.5,26.9,35.5 M44,10.3c-3.4-0.3-4.3,2.8-4.4,2.9c1.8-2.4,3.5-2.4,4.3-2.2
		c0.2,0,0.4-0.1,0.4-0.3v-0.1C44.2,10.4,44.2,10.3,44,10.3 M44,10.3c-3.4-0.3-4.3,2.8-4.4,2.9c1.8-2.4,3.5-2.4,4.3-2.2
		c0.2,0,0.4-0.1,0.4-0.3v-0.1C44.2,10.4,44.2,10.3,44,10.3 M44,10.3c-3.4-0.3-4.3,2.8-4.4,2.9c1.8-2.4,3.5-2.4,4.3-2.2
		c0.2,0,0.4-0.1,0.4-0.3v-0.1C44.2,10.4,44.2,10.3,44,10.3 M44,10.3c-3.4-0.3-4.3,2.8-4.4,2.9c1.8-2.4,3.5-2.4,4.3-2.2
		c0.2,0,0.4-0.1,0.4-0.3v-0.1C44.2,10.4,44.2,10.3,44,10.3 M44,10.3c-3.4-0.3-4.3,2.8-4.4,2.9c1.8-2.4,3.5-2.4,4.3-2.2
		c0.2,0,0.4-0.1,0.4-0.3v-0.1C44.2,10.4,44.2,10.3,44,10.3 M44,10.3c-3.4-0.3-4.3,2.8-4.4,2.9c1.8-2.4,3.5-2.4,4.3-2.2
		c0.2,0,0.4-0.1,0.4-0.3v-0.1C44.2,10.4,44.2,10.3,44,10.3 M44,10.3c-3.4-0.3-4.3,2.8-4.4,2.9c1.8-2.4,3.5-2.4,4.3-2.2
		c0.2,0,0.4-0.1,0.4-0.3v-0.1C44.2,10.4,44.2,10.3,44,10.3 M44,10.3c-3.4-0.3-4.3,2.8-4.4,2.9c1.8-2.4,3.5-2.4,4.3-2.2
		c0.2,0,0.4-0.1,0.4-0.3v-0.1C44.2,10.4,44.2,10.3,44,10.3 M44,10.3c-3.4-0.3-4.3,2.8-4.4,2.9c1.8-2.4,3.5-2.4,4.3-2.2
		c0.2,0,0.4-0.1,0.4-0.3v-0.1C44.2,10.4,44.2,10.3,44,10.3 M44,10.3c-3.4-0.3-4.3,2.8-4.4,2.9c1.8-2.4,3.5-2.4,4.3-2.2
		c0.2,0,0.4-0.1,0.4-0.3v-0.1C44.2,10.4,44.2,10.3,44,10.3 M44,10.3c-3.4-0.3-4.3,2.8-4.4,2.9c1.8-2.4,3.5-2.4,4.3-2.2
		c0.2,0,0.4-0.1,0.4-0.3v-0.1C44.2,10.4,44.2,10.3,44,10.3 M44,10.3c-3.4-0.3-4.3,2.8-4.4,2.9c1.8-2.4,3.5-2.4,4.3-2.2
		c0.2,0,0.4-0.1,0.4-0.3v-0.1C44.2,10.4,44.2,10.3,44,10.3 M44,10.3c-3.4-0.3-4.3,2.8-4.4,2.9c1.8-2.4,3.5-2.4,4.3-2.2
		c0.2,0,0.4-0.1,0.4-0.3v-0.1C44.2,10.4,44.2,10.3,44,10.3"/>
	<path class="st0" d="M56.7,33.1c0.1-0.2,0.2-0.4,0.3-0.7C56.9,32.6,56.8,32.9,56.7,33.1 M50.5,32.1c0.1,0,0.2,0.1,0.3,0.1
		C50.8,32.2,50.7,32.1,50.5,32.1 M33.8,35.3l-0.5,0.4C33.5,35.5,33.5,35.4,33.8,35.3c0.4-0.3,0.8-0.6,1.1-0.9
		C34.5,34.7,34.2,35,33.8,35.3 M31.7,35.8c-0.1,0.1-0.1,0.1-0.2,0.1C31.5,35.9,31.6,35.9,31.7,35.8c0.3-0.2,0.6-0.4,0.9-0.6
		C32.2,35.4,31.9,35.6,31.7,35.8 M29.4,35.7c0.6-0.4,1.2-0.8,1.8-1.2C30.6,34.9,30,35.3,29.4,35.7 M27.2,35.6c0.2,0,0.4,0,0.7-0.1
		C27.7,35.6,27.5,35.6,27.2,35.6 M26.9,35.5c0.1,0,0.3,0.1,0.4,0.1C27.1,35.6,27,35.5,26.9,35.5"/>
	<path class="st0" d="M44,10.3c-3.4-0.3-4.3,2.8-4.4,2.9c1.8-2.4,3.5-2.4,4.3-2.2c0.2,0,0.4-0.1,0.4-0.3v-0.1
		C44.2,10.4,44.2,10.3,44,10.3"/>
	<path class="st0" d="M61.4,21.8L61.4,21.8c-0.1-0.2-0.2-0.3-0.3-0.4l0,0c-0.4-0.5-1.1-1-1.8-1.6l0,0c-0.2-0.1-0.3-0.2-0.5-0.4
		c-0.9-0.7-1.9-1.5-3.2-2l0,0c-2.1-1.1-6.3-1.8-6.7-1.9c0-0.5-0.1-1-0.2-1.5c-0.2-0.8-0.5-1.5-0.9-2.3c0.2-0.4,0.4-0.8,0.5-1.4
		c0.1-0.7,0.1-1.2-0.1-1.7c-0.3-0.9-1.2-1.2-2-0.9c-0.1,0-0.1,0.1-0.2,0.1c-0.2-0.5-0.6-0.9-1-1.4c-1.2-1.3-2.8-1.9-4.1-2.2
		c0,0,0,0-0.1,0c0.1-0.4,0.6-0.9,1-1.6c0,0,0,0,0-0.1c0.4-0.7-0.4-1.6-4.4-1.5c-3.2,0.1-3.9,0.7-3.8,1.6c0,0.5,0.3,1,0.5,1.4
		c0.1,0.1,0.2,0.3,0.3,0.5c0,0.1,0.1,0.1,0.1,0.1v0.1c-1.9,0.7-3.3,1.8-3.8,3.3c-0.7-0.1-1.1,0.3-1.3,0.5c-0.3,0.4-0.7,1.1-0.4,2.3
		c0.1,0.5,0.3,0.9,0.5,1.2c-0.7,1.1-1,2.4-1.2,3.4l-1.7,0.1l-3.4,0.4l0,0h-0.1H23l0,0c0,0,0,0-0.1,0L22.5,16l0,0L22,16.2l0,0
		l-0.5,0.2c0,0,0,0-0.1,0L21,16.6l0,0l-0.4,0.2c0,0,0,0-0.1,0L20.1,17c0,0,0,0-0.1,0l-0.3,0.3l0,0l-0.3,0.3c0,0,0,0-0.1,0L19,18.1
		l0,0l-0.3,0.3l0,0l-0.2,0.3c0,0,0,0,0,0.1l-0.2,0.3l0,0L18,19.4c0,0,0,0,0,0.1l-0.2,0.3l0,0l-0.1,0.3l0,0l-0.1,0.3c0,0,0,0,0,0.1
		l-0.1,0.3l-0.2,0.6l0,0L16.9,22l-0.1,0.7l0,0v0.2v0.6v0.1v0.2v0.1v0.2l0,0v0.2c0,0,0,0,0,0.1v0.2l0,0l0.1,0.4l0.2,0.7
		c0,0,0,0,0,0.1l0.1,0.2v0.1l0.1,0.1v0.1l0.2,0.3v0.1l0.2,0.3c0,0,0,0.1,0.1,0.1l0.2,0.2c0,0,0,0,0.1,0.1l0.2,0.2l0.1,0.1l0.2,0.2
		c0,0,0.1,0,0.1,0.1l0.2,0.1H19c0,0,1.3,0.5,2.4,0.4c5.1-0.2,8.4-0.8,8.4-0.8l0,0l5.9-2.2l1.4-0.2c0.1,0,0.2,0,0.3,0
		c0,0,2.5,0,6.2,1.7c2.6,1.2,6.6,2.1,10.2,2.1c1.2,0,2.3-0.1,3.3-0.4c0.9-0.2,1.7-0.6,2.4-1l0,0c0.1,0,0.2-0.1,0.2-0.1l0,0
		c0.1,0,0.1-0.1,0.2-0.1c0.1-0.1,0.3-0.1,0.4-0.2c0.3-0.1,0.5-0.3,0.7-0.5C62.5,24.9,61.9,22.6,61.4,21.8 M60,25.5
		c0,0-0.3,0.1-0.6,0.2c-0.2,0.1-0.3,0.1-0.4,0.2c-0.1,0.1-0.2,0.1-0.3,0.2c-0.4,0.3-1,0.6-1.7,0.7c-3.4,0.9-9.1,0.1-12.6-1.6
		c-1.6-0.7-3-1.2-4.2-1.4c-1.9-0.5-3.1-0.4-3.1-0.4s3.4-2.3,4.8-3c1-0.4,2.1-1.1,3.7-1.6l0,0l0,0c0.2-0.1,0.4-0.1,0.6-0.2
		c-5.9,1.1-10.3,3.3-14,5.2c-4.6,2.3-12.5,2.9-13.8,1.4c-1.3-1.4-0.2-0.2-0.3-0.4c-0.2-0.4-0.5-5.9,5-7.3c0.1,0,3.2-0.6,6.4-0.6
		c0.8,0,1.5-0.1,2.3-0.2c1.4-0.1,2.7-0.2,4.1-0.2c-0.3-0.1-0.5-0.2-0.8-0.3l0,0c-2.3,0.1-4.5,0.2-5.2,0.3c-0.2,0-0.2-0.6-0.2-0.7
		c0-0.7-0.2-2.5,0.9-4c-0.2-0.2-0.6-0.8-0.8-1.3c-0.2-0.7-0.1-1,0.1-1.2s0.5-0.2,0.8,0s0.4,0.4,0.7,0.7l0,0c0.2-1.1,0.8-2.8,2.3-3.5
		c0.8-0.4,1.5-0.3,2.3,0.1c1,0.4,1.3,1.2,2.3,1.2c1.1,0.1,1.2-0.7,1.9-1.2c1-0.8,2.6-0.6,3.6,0.1c0.7,0.5,1.4,1.4,1.8,3.2
		c0.2-0.3,0.4-0.5,0.6-0.7c0.3-0.2,0.5-0.3,0.8,0c0.2,0.2,0.3,0.5,0.2,1.3c-0.1,0.5-0.3,0.7-0.6,1.2c-0.1,0.1-0.1,0.2-0.2,0.3
		c0.4,0.9,0.9,2.4,1,4c0,0.1,0.1,0.4-0.1,0.4c-0.5,0.2-1.4-0.7-4.7-0.5h-0.1c-0.2,0.1-0.4,0.3-0.7,0.4l0,0c0.2,0,0.5,0,0.7-0.1
		c1.3-0.1,2.2,0,4,0.3c1.3,0.2,2.6,0.8,3.7,1.5c1.6-0.1,3.2-0.1,4.7,0.4c1.4,0.5,2.3,1.7,3.4,2.6c0.6,0.5,1.3,1,1.6,1.4
		c0.1,0.1,0.1,0.2,0.2,0.2C60.2,23,60.8,24.5,60,25.5"/>
	<path class="st0" d="M44.4,14.5c-0.6,0.5-1.2,1-1.9,1.4c-0.2,0.1-0.4,0.3-0.7,0.4l0,0C40,16.5,38,16.5,36,16.6
		c-0.3-0.1-0.5-0.2-0.8-0.3l0,0c-0.9-0.5-1.8-1-2.5-1.8c0.1,0,0.2-0.1,0.2-0.2l0.1-0.1c0.3,0.3,0.6,0.5,1,0.8s0.9,0.6,1.4,0.8
		c0.2,0.1,0.4,0.1,0.5,0.2c0.1,0,0.1,0.1,0.2,0.1c0.1,0,0.1,0,0.2,0.1c0.1,0,0.2,0,0.2,0.1c1.8-0.1,3.4-0.2,4.3-0.2l0,0
		c0.2-0.1,0.5-0.2,0.7-0.3c0.5-0.2,0.9-0.5,1.4-0.8c0.4-0.3,0.8-0.5,1.1-0.8c0,0.1,0.1,0.1,0.1,0.2C44.2,14.4,44.2,14.4,44.4,14.5"
		/>
	<polyline class="st0" points="31,35.9 31,35.9 31,35.9 	"/>
	<path class="st0" d="M56.2,33.9L56.2,33.9c0.1-0.1,0.1-0.3,0.2-0.4C56.4,33.6,56.4,33.8,56.2,33.9 M29.4,35.7
		c0.6-0.4,1.2-0.8,1.8-1.2C30.6,34.9,30,35.3,29.4,35.7 M27.2,35.6c0.2,0,0.4,0,0.7-0.1C27.7,35.6,27.5,35.6,27.2,35.6 M26.9,35.5
		c0.1,0,0.3,0.1,0.4,0.1C27.1,35.6,27,35.5,26.9,35.5"/>
	<path class="st0" d="M58.9,30.4c-0.3-0.4-0.9-0.6-1.5-0.7c-0.8-0.2-1.7-0.1-2.1,0.2c-0.4,0.2-0.7,0.5-1,0.8c-0.4,0-0.9-0.1-1.4,0
		c-0.6,0-1.1,0.4-1.5,0.7c-0.1,0.1-0.2,0.1-0.3,0.1c-1.1-0.4-2-0.2-2.8,0.6c0,0,0,0-0.1,0.1c-1.1-0.5-2.2-0.4-3.1,0.4
		C44,31.9,43,32,42,32.7c-1.1-0.6-2.1-0.6-3.2,0.1c-1-0.7-2.1-0.7-3.2-0.1c-0.9-0.7-2-0.8-3.2-0.2c-0.9-0.8-1.9-0.9-3.1-0.4
		c-0.8-0.8-1.9-1-3-0.6c-0.4-0.4-0.7-0.7-1.3-0.8c-0.5-0.1-1.1-0.1-1.6,0.1c-0.4-0.5-0.9-0.9-1.5-1c-0.5-0.1-1.1-0.1-1.6,0.1
		c-1.6,0.5-2.7,2.2-1.7,3.8c0.5,0.9,1.8,1.3,3,1.1c0.2,0,0.3,0,0.4,0.1c0.3,0.3,0.6,0.5,1,0.7c0.6,0.2,1.3,0.3,2,0.1
		c0.1,0,0.2,0,0.3,0.1c0.2,0.2,0.4,0.3,0.6,0.5c0.8,0.4,1.6,0.5,2.6,0.1c0,0,0,0,0.1,0c0.5,0.4,1,0.7,1.7,0.8c0.5,0,1,0,1.5-0.2
		c0.1-0.1,0.2-0.1,0.4,0c0.9,0.7,2,0.7,3.1,0.2c0.1,0,0.2-0.1,0.3,0c1.1,0.7,2.1,0.7,3.3,0c0.5,0.3,1.1,0.5,1.7,0.5
		c0.6,0,1-0.2,1.5-0.4c0.1,0,0.2-0.1,0.3-0.1c1.2,0.6,2.3,0.4,3.3-0.3c0.7,0.4,1.4,0.5,2.2,0.2c0.4-0.1,0.7-0.3,1.1-0.6
		c0.1-0.1,0.2-0.1,0.3,0c0.9,0.3,1.8,0.3,2.6-0.2c0.2-0.1,0.3-0.2,0.5-0.4c0.1-0.1,0.2-0.1,0.3-0.1c0.3,0.1,0.6,0.1,0.8,0.1
		c0.4,0,0.8-0.1,1.2-0.2c0.4-0.1,0.7-0.4,1-0.7c0.1-0.1,0.2-0.1,0.3-0.1C58.2,35.2,61,32.9,58.9,30.4 M20.4,30.6h0.1l0,0
		c0.1,0,0.2-0.1,0.3-0.1h0.1c0.1,0,0.1,0,0.2,0c0.6-0.1,1.2,0.2,1.6,0.7c-0.7,0.3-1.4,0.5-2,0.8c-0.5,0.2-0.9,0.4-1.4,0.5
		C19.1,31.8,19.7,31,20.4,30.6 M22.2,33.6c-0.1,0.1-0.3,0.1-0.4,0.2c-0.1,0-0.1,0-0.2,0.1c-0.1,0-0.2,0-0.3,0.1h-0.1
		c-0.1,0-0.2,0-0.3,0c-0.1,0-0.1,0-0.2,0h-0.1h-0.1c-0.3-0.1-0.5-0.2-0.7-0.5c0,0-0.1-0.1-0.1-0.2c0.3-0.1,0.6-0.2,0.8-0.3l0.5-0.2
		c0.9-0.4,1.8-0.7,2.6-1.1c0.8-0.3,1.5-0.2,2,0.4c-0.8,0.4-1.7,0.9-2.5,1.3c-0.1,0-0.1,0.1-0.2,0.1l0,0c-0.1,0-0.2,0.1-0.3,0.1
		C22.5,33.5,22.4,33.5,22.2,33.6 M25,34.7c-0.1,0.1-0.3,0.1-0.4,0.1c-0.2,0-0.4,0.1-0.6,0h-0.1h-0.1c0,0,0,0-0.1,0c0,0,0,0-0.1,0
		s-0.1,0-0.2-0.1c0,0-0.1,0-0.1-0.1c-0.1,0-0.1-0.1-0.2-0.1c-0.1-0.1-0.2-0.1-0.2-0.2c0.1,0,0.1-0.1,0.2-0.1
		c0.6-0.3,1.1-0.6,1.7-0.9c0.6-0.3,1.2-0.6,1.7-1c0.8-0.4,1.6-0.3,2.1,0.2c-0.4,0.3-0.8,0.5-1.2,0.8C26.7,33.8,25.8,34.2,25,34.7
		 M28.4,35.3c-0.1,0.1-0.3,0.2-0.5,0.2c-0.2,0.1-0.4,0.1-0.7,0.1c-0.1,0-0.3,0-0.4-0.1c-0.1,0-0.1,0-0.2-0.1c-0.1,0-0.1-0.1-0.2-0.1
		c-0.1-0.1-0.3-0.2-0.4-0.3c0.3-0.1,0.5-0.3,0.8-0.5c0.9-0.6,1.9-1.2,2.8-1.7c0.7-0.4,1.5-0.4,2.2,0.1c-0.2,0.2-0.4,0.3-0.7,0.5
		c-0.2,0.2-0.4,0.3-0.7,0.5C29.8,34.4,29.1,34.8,28.4,35.3 M31.7,35.8c-0.1,0.1-0.1,0.1-0.2,0.1S31.4,36,31.2,36h-0.1l0,0l0,0
		c0,0-0.1,0-0.2,0s-0.2,0-0.3,0l0,0c-0.1,0-0.2,0-0.2,0l0,0c-0.1,0-0.1,0-0.2,0s-0.1,0-0.2-0.1h-0.1c-0.2-0.1-0.4-0.2-0.5-0.3
		c0.6-0.4,1.2-0.8,1.8-1.2c0.6-0.4,1.1-0.8,1.7-1.2c0.6-0.5,1.6-0.5,2.2,0.1c-0.6,0.4-1.1,0.9-1.7,1.3c-0.3,0.2-0.6,0.4-0.8,0.6
		S31.9,35.6,31.7,35.8 M35,36C35,36.1,35,36.1,35,36c-0.2,0.1-0.2,0.2-0.3,0.2s-0.1,0.1-0.2,0.1l0,0c0,0,0,0-0.1,0l0,0
		c-0.1,0-0.1,0-0.2,0l0,0l0,0c-0.1,0-0.1,0-0.2,0c-0.1,0-0.1,0-0.2,0c-0.1,0-0.1,0-0.2,0h-0.1h-0.1c-0.2-0.1-0.4-0.2-0.6-0.3l0,0
		c0.2-0.1,0.3-0.2,0.5-0.4l0.5-0.4c0.4-0.3,0.8-0.6,1.1-0.9c0.4-0.3,0.8-0.6,1.1-0.9c0.6-0.5,1.5-0.6,2.2-0.1
		c-0.9,0.7-1.7,1.5-2.5,2.2C35.5,35.7,35.2,35.9,35,36 M38.5,36C38.5,36.1,38.5,36.1,38.5,36c-0.6,0.6-1.4,0.7-2.1,0.4
		c-0.1,0-0.1-0.1-0.2-0.1c0.1-0.1,0.2-0.2,0.3-0.3c0.3-0.3,0.7-0.7,1-1c0.5-0.5,1.1-1,1.7-1.5c0.6-0.5,1.4-0.6,2.1-0.2
		c-0.3,0.3-0.5,0.5-0.8,0.8C39.9,34.8,39.2,35.4,38.5,36 M42,35.9L42,35.9l-0.2,0.2c-0.5,0.5-1.5,0.6-2.2,0.1
		c0.1-0.1,0.2-0.2,0.3-0.3c0.3-0.3,0.6-0.5,0.9-0.8c0.6-0.6,1.2-1.2,1.8-1.8s1.4-0.7,2.2-0.3c-0.5,0.6-1.1,1.1-1.6,1.7
		C42.7,35.2,42.2,35.6,42,35.9 M45.2,35.9C45,35.9,45,36,45,36c-0.2,0.1-0.3,0.2-0.5,0.3c-0.1,0-0.1,0-0.2,0.1c-0.1,0-0.1,0-0.2,0
		c-0.4,0-0.7,0-1.1-0.2c0.1-0.1,0.1-0.1,0.2-0.2c0.7-0.8,1.5-1.6,2.2-2.4c0.2-0.2,0.4-0.5,0.6-0.6c0.5-0.4,1.2-0.5,1.8-0.2
		c-0.3,0.4-0.7,0.9-1,1.3C46.2,34.7,45.7,35.3,45.2,35.9 M49,34.9c-0.2,0.2-0.4,0.5-0.6,0.7c-0.1,0.1-0.1,0.1-0.2,0.2l-0.1,0.1
		c0,0-0.1,0-0.1,0.1c-0.1,0-0.2,0.1-0.3,0.1s-0.1,0-0.2,0.1c-0.2,0-0.4,0.1-0.6,0c-0.1,0-0.2,0-0.4-0.1l0,0c-0.1,0-0.1-0.1-0.2-0.1
		c0.7-0.9,1.4-1.7,2.1-2.6c0.2-0.2,0.3-0.5,0.5-0.7c0.4-0.5,1.1-0.7,1.7-0.6c0.1,0,0.2,0.1,0.3,0.1C50.2,33.1,49.5,34,49,34.9
		 M51.9,34.9c-0.4,0.7-1.5,0.9-2.2,0.6c0.3-0.4,0.6-0.8,0.9-1.2c0.5-0.7,0.9-1.4,1.4-2.1c0.4-0.7,1.2-1,2-0.7
		c-0.2,0.4-0.5,0.8-0.7,1.2C52.8,33.4,52.2,34.2,51.9,34.9 M55.2,33.9C55.2,33.9,55.2,34,55.2,33.9c-0.2,0.2-0.3,0.4-0.4,0.5
		c-0.1,0.1-0.1,0.1-0.2,0.2l0,0c-0.1,0.1-0.2,0.2-0.4,0.2c-0.1,0-0.1,0.1-0.2,0.1c-0.1,0-0.2,0-0.2,0c-0.2,0-0.4,0-0.5,0
		s-0.2,0-0.3-0.1c0.3-0.6,0.7-1.1,1-1.6c0.3-0.6,0.7-1.2,1-1.8c0.3-0.7,1.1-1,1.9-0.8v0.1c0,0.1-0.1,0.3-0.2,0.4
		C56.2,32,55.7,32.9,55.2,33.9 M58.4,32.9c-0.1,0.2-0.2,0.3-0.3,0.4c-0.1,0.1-0.1,0.1-0.2,0.2l0,0c-0.1,0-0.1,0.1-0.2,0.1
		c-0.1,0.1-0.2,0.1-0.3,0.1s-0.2,0.1-0.2,0.1c-0.1,0-0.2,0-0.2,0.1l0,0c-0.1,0-0.2,0-0.2,0c-0.1,0-0.3,0-0.4-0.1l0,0
		c0.1-0.1,0.1-0.3,0.2-0.4c0.1-0.1,0.1-0.3,0.2-0.4l0,0c0.1-0.2,0.2-0.5,0.3-0.7l0,0c0.2-0.5,0.5-1.1,0.7-1.6
		C58.5,31.2,58.8,32.1,58.4,32.9"/>
	<path class="st0" d="M31.2,34.5c-0.6,0.4-1.2,0.8-1.8,1.2C30,35.3,30.6,34.9,31.2,34.5"/>
	<path class="st0" d="M27.2,35.6c-0.1,0-0.3,0-0.4-0.1C27,35.5,27.1,35.6,27.2,35.6"/>
	<path class="st0" d="M27.9,35.5c-0.2,0.1-0.4,0.1-0.7,0.1C27.5,35.6,27.7,35.6,27.9,35.5"/>
	<path class="st0" d="M56.5,33.5c-0.1,0.1-0.1,0.3-0.2,0.4l0,0C56.4,33.8,56.4,33.6,56.5,33.5"/>
	<path class="st0" d="M57,32.4c-0.1,0.3-0.2,0.5-0.3,0.7C56.8,32.9,56.9,32.6,57,32.4"/>
	<path class="st0" d="M44,10.3c-3.4-0.3-4.3,2.8-4.4,2.9c1.8-2.4,3.5-2.4,4.3-2.2c0.2,0,0.4-0.1,0.4-0.3v-0.1
		C44.2,10.4,44.2,10.3,44,10.3"/>
	<path class="st1" d="M37.7,13.2c-1.8-2.3-3.6-2.3-4.3-2.1C33.2,11.2,33,11,33,10.8l0,0c0-0.2,0.1-0.3,0.3-0.4
		C36.7,10,37.7,13.1,37.7,13.2"/>
	<path class="st1" d="M44.2,10.6L44.2,10.6c0,0.3-0.2,0.5-0.4,0.4c-0.8-0.2-2.5-0.2-4.3,2.2c0-0.2,1-3.2,4.4-2.9
		C44.2,10.3,44.2,10.4,44.2,10.6"/>
	<path class="st0" d="M45,14.6L45,14.6l-0.2,0.1l0,0c-0.2-0.1-0.4-0.1-0.5-0.3c-0.1,0-0.1-0.1-0.2-0.2c-0.1-0.1-0.1-0.1-0.1-0.2l0,0
		c-0.1-0.2-0.2-0.3-0.3-0.5c0,0,0-0.1,0.1-0.1l0.2-0.1l0,0c0,0,0,0,0.1,0c0.1,0.1,0.2,0.2,0.3,0.3l0.2,0.2c0.1,0.1,0.1,0.1,0.2,0.2
		c0.1,0.1,0.2,0.2,0.3,0.3C45,14.5,45,14.5,45,14.6"/>
	<path class="st0" d="M33.4,13.7c-0.1,0.2-0.2,0.4-0.3,0.5L33,14.3c-0.1,0.1-0.1,0.1-0.2,0.2c-0.2,0.1-0.3,0.2-0.5,0.2l0,0
		c0,0-0.1,0-0.1-0.1L32,14.5v-0.1c0.1-0.1,0.2-0.2,0.3-0.3s0.1-0.1,0.2-0.2c0.1-0.1,0.1-0.1,0.2-0.2c0.1-0.1,0.2-0.2,0.3-0.3
		c0,0,0,0,0.1,0c0,0,0,0,0.1,0l0.1,0.1C33.4,13.6,33.4,13.6,33.4,13.7"/>
	<polygon class="st0" points="8.1,73.3 4.9,65.5 7.1,65.5 9.3,71 11.5,65.5 13.6,65.5 10.2,73.3 10.2,78.2 8.1,78.2 	"/>
	<path class="st0" d="M16.1,65.5h2.6l3.4,12.8H20l-0.8-3.1h-3.7l-0.8,3.1h-2.1L16.1,65.5z M18.8,73.5l-1.5-6.3l0,0l-1.5,6.3H18.8z"
		/>
	<polygon class="st0" points="23.7,65.5 25.8,65.5 25.8,71 25.8,71 29.7,65.5 31.9,65.5 28.2,70.9 32.2,78.2 30,78.2 26.9,72.5 
		25.8,74.1 25.8,78.2 23.7,78.2 	"/>
	<rect x="34.2" y="65.5" class="st0" width="2" height="12.8"/>
	<polygon class="st0" points="39,65.5 41.4,65.5 45.2,75 45.2,75 45.2,65.5 47,65.5 47,78.2 44.5,78.2 40.9,68.5 40.9,68.5 
		40.9,78.2 39,78.2 	"/>
	<rect x="49.9" y="65.5" class="st0" width="2" height="12.8"/>
	<polygon class="st0" points="54.5,65.5 56.5,65.5 56.5,71 56.5,71 60.4,65.5 62.7,65.5 59,70.9 63,78.2 60.7,78.2 57.7,72.5 
		56.5,74.1 56.5,78.2 54.5,78.2 	"/>
	<path class="st0" d="M66.2,65.5v9.2c0,0.8,0.2,1.4,0.5,1.8s0.8,0.6,1.4,0.6s1.1-0.2,1.4-0.6s0.5-1,0.5-1.8v-9.2h2v9
		c0,0.7-0.1,1.4-0.3,1.9c-0.2,0.5-0.4,0.9-0.8,1.2c-0.3,0.3-0.7,0.5-1.2,0.7c-0.5,0.1-1,0.2-1.6,0.2s-1.2-0.1-1.6-0.2
		c-0.5-0.1-0.9-0.4-1.2-0.7c-0.3-0.3-0.6-0.7-0.8-1.2c-0.2-0.5-0.3-1.1-0.3-1.9v-9H66.2z"/>
</g>
</svg>
