<?xml version="1.0" encoding="utf-8"?>
<!-- Generator: Adobe Illustrator 26.3.1, SVG Export Plug-In . SVG Version: 6.00 Build 0)  -->
<svg version="1.1" id="Layer_1" xmlns="http://www.w3.org/2000/svg" xmlns:xlink="http://www.w3.org/1999/xlink" x="0px" y="0px"
	 viewBox="0 0 80.9 87" style="enable-background:new 0 0 80.9 87;" xml:space="preserve">
<style type="text/css">
	.st0{fill:#C3190F;}
</style>
<g>
	<g>
		<g>
			<g>
				<path class="st0" d="M36.2,27.4c0,0-1.5,0.1-2.4,1c-0.9,0.8,1.6,5.1,3.2,4.4C38.6,32.1,37,27.4,36.2,27.4z"/>
				<g>
					<path class="st0" d="M34.7,35.7c0,0-1.9-0.4-2.9,0.2c-1.1,0.6,1.5,7.6,3,6.7S35.4,35.8,34.7,35.7z"/>
					<path class="st0" d="M45.2,35.7c0,0,1.9-0.4,2.9,0.2c1.1,0.6-1.5,7.6-3,6.7C43.8,41.7,44.5,35.8,45.2,35.7z"/>
				</g>
				<path class="st0" d="M43.9,27.4c0,0,1.5,0.1,2.4,1c0.9,0.8-1.6,5.1-3.2,4.4C41.5,32.1,43.1,27.4,43.9,27.4z"/>
				<path class="st0" d="M41.5,35c0,0,0.4,14.7,0.8,16.8c0.4,2-0.8,1.7-2.4,1.7s-2.8,0.3-2.4-1.7c0.4-2,0.8-16.8,0.8-16.8L41.5,35
					L41.5,35z"/>
				<path class="st0" d="M51.7,12.8c-0.1-0.5-0.7-1.4-0.8-1.5c-0.2-0.3-0.5-0.8-0.9-1c0,0,0.1,0.6-1.1,0.6H31.3
					c-1.2,0-1.1-0.6-1.1-0.6c-0.4,0.3-0.7,0.7-0.9,1c-0.1,0.1-0.6,1-0.8,1.5c-0.3,1,1.1,1.9,2.1,1.4c0.6-0.3,3.3-0.6,5.7-0.8
					c1.3-0.1,2.5-0.2,3.8-0.2c1.3,0,2.5,0.1,3.8,0.2c2.3,0.2,5,0.5,5.7,0.8C50.7,14.7,52,13.8,51.7,12.8z"/>
				<path class="st0" d="M48.4,14.4c-2.5,0-5.7,0.6-11.3,4.9c-5.9,4.5-12.5,6.2-17.5,4.6c-0.2-0.1-0.5-0.2-0.7-0.3l-0.3-0.1
					c-0.1,0-0.2,0-0.2,0.1c0,0.1,0,0.2,0.1,0.2c0,0,0.5,0.3,0.8,0.9c0.3,0.7,0.8,1.8,1.6,2.6c1,1.1,2.1,1.7,3.3,1.7
					c3.3,0,9.7-3.1,14.5-7.1c2.1-1.8,5.4-4.1,9.1-4.1c0.7,0,1.8-1.1,1.8-2.2C49.4,14.8,49.1,14.4,48.4,14.4z"/>
				<path class="st0" d="M61.8,23.5c0-0.1-0.1-0.1-0.2-0.1l-0.3,0.1c-0.2,0.1-0.5,0.2-0.7,0.3C55.5,25.5,49,23.8,43,19.3
					c-5.6-4.3-8.9-4.9-11.3-4.9c-0.7,0-1.1,0.3-1.1,1c0,1.1,1,2.2,1.8,2.2c1.8,0,4.6,0.4,9.1,4.1c4.9,4,11.2,7.1,14.5,7.1
					c1.2,0,2.3-0.6,3.3-1.7c0.8-0.9,1.3-1.9,1.6-2.6c0.3-0.6,0.8-0.9,0.8-0.9C61.8,23.7,61.9,23.6,61.8,23.5z"/>
				<path class="st0" d="M40,7.6c-0.1,0-0.2,0-0.3,0c-1.2,0-1.1-0.6-1.1-0.6c-0.7,0.3-0.8,0.8-0.8,0.9c0,0,0,0,0,0s0.1,3.4,1.1,3.4
					h2.1c0.9,0,1.1-3.4,1.1-3.4S42.3,7.6,40,7.6z"/>
				<path class="st0" d="M51.7,30.6c-0.2-0.9-1.1-1.8-1.5-2.1c0,0,0.1,0.5-0.8,0.5H30.9c-0.9-0.1-0.8-0.5-0.8-0.5
					c-0.3,0.3-1.3,1.2-1.5,2.1c-0.2,1,0.9,1.7,2,1.4c0.7-0.2,3.3-0.5,5.7-0.7c1.3-0.1,2.6-0.2,3.9-0.2c1.3,0,2.6,0,3.9,0.2
					c2.3,0.2,4.9,0.6,5.7,0.7C50.8,32.4,51.9,31.6,51.7,30.6z"/>
				<path class="st0" d="M51.2,47.9c-0.2-0.7-1.1-1.5-1.4-1.7c0,0,0.1,0.4-0.8,0.4H31.3c-0.9,0-0.8-0.4-0.8-0.4
					c-0.3,0.2-1.2,1-1.4,1.7c-0.2,0.8,0.9,1.4,1.9,1.2c0.7-0.1,3.2-0.4,5.4-0.6c1.2-0.1,2.5-0.1,3.7-0.1c1.2,0,2.5,0,3.7,0.1
					c2.2,0.2,4.7,0.5,5.4,0.6C50.3,49.3,51.4,48.7,51.2,47.9z"/>
				<path class="st0" d="M54.2,35.5c0-0.4-0.2-1.3-1.6-2.4c0,0,0.1,0.4-0.8,0.4H28c-0.9,0-0.8-0.4-0.8-0.4c-1.4,1.1-1.5,2-1.6,2.4
					c-0.1,0.8,1.1,1.5,2,1.3c0.9-0.2,3.4-1.2,12.3-1.3c8.9,0.1,11.4,1.1,12.3,1.3C53.1,37,54.3,36.3,54.2,35.5z"/>
				<path class="st0" d="M52.9,44.5c0-0.4-0.1-1.3-1.4-2.4c0,0,0.1,0.4-0.7,0.4H29c-0.8,0-0.7-0.4-0.7-0.4c-1.3,1.1-1.4,2-1.4,2.4
					c-0.1,0.8,1,1.5,1.8,1.3c0.8-0.2,3.1-1.2,11.2-1.3c8.1,0.1,10.4,1.1,11.2,1.3C51.9,46,53,45.3,52.9,44.5z"/>
				<path class="st0" d="M57.8,40.4c-0.1-0.5-0.2-1.6-2-2.9c0,0,0.1,0.5-1,0.5H25c-1.1,0-1-0.5-1-0.5c-1.8,1.3-1.9,2.4-2,2.9
					c-0.1,0.9,1.4,1.8,2.5,1.6c1.1-0.3,4.3-1.5,15.4-1.6c11.2,0.1,14.3,1.3,15.4,1.6C56.4,42.3,57.9,41.4,57.8,40.4z"/>
			</g>
			<path class="st0" d="M70.9,24.5c-0.6-0.3-1-0.9-1-1.5c0-0.1,0-0.1,0-0.1c0-0.6-0.3-1.2-0.7-1.7L49.1,1.1
				c-0.4-0.4-1.1-0.7-1.7-0.7H32.7c-0.6,0-1.2,0.3-1.7,0.7L10.9,21.2c-0.4,0.4-0.7,1.1-0.7,1.7c0,0,0,0,0,0.1c0,0.7-0.4,1.3-1,1.5
				c-1.5,0.7-2.6,2.9-2.6,5.7s1,5,2.6,5.7c0.6,0.3,1,0.9,1,1.5c0,0.1,0,0.1,0,0.1c0,0.6,0.3,1.2,0.7,1.7L31,59.3
				c0.4,0.4,1.1,0.7,1.7,0.7h14.7c0.6,0,1.2-0.3,1.7-0.7l20.1-20.1c0.4-0.4,0.7-1.1,0.7-1.7c0,0,0,0,0-0.1c0-0.7,0.4-1.3,1-1.5
				c1.5-0.7,2.6-2.9,2.6-5.7S72.4,25.2,70.9,24.5z M67.5,30.2c0,4.7-1.9,9.2-5.2,12.6l-9.7,9.7c-3.3,3.3-7.8,5.2-12.6,5.2l0,0
				c-4.7,0-9.2-1.9-12.6-5.2l-9.7-9.7c-3.3-3.3-5.2-7.8-5.2-12.6l0,0c0-4.7,1.9-9.2,5.2-12.6L27.5,8c3.3-3.3,7.8-5.2,12.6-5.2l0,0
				c4.7,0,9.2,1.9,12.6,5.2l9.7,9.7C65.6,21,67.5,25.5,67.5,30.2L67.5,30.2z"/>
		</g>
		<g>
			<path class="st0" d="M25.7,77.1v0.6h-0.9v2.8h-0.8v-2.8H23v-0.6H25.7z"/>
			<path class="st0" d="M27.6,77.1h0.9l1.2,3.5h-0.9l-0.2-0.7h-1.2l-0.2,0.7h-0.9L27.6,77.1z M27.6,79.2h0.8l-0.1-0.4
				c0-0.1-0.1-0.3-0.1-0.4c0-0.2-0.1-0.3-0.1-0.4h0c0,0.1-0.1,0.3-0.1,0.4c0,0.1-0.1,0.3-0.1,0.4L27.6,79.2z"/>
			<path class="st0" d="M31.7,77.1v3.5h-0.8v-3.5H31.7z"/>
			<path class="st0" d="M33.8,77.1l0.3,1.4c0,0.2,0.1,0.4,0.1,0.6c0,0.2,0.1,0.4,0.1,0.6h0c0-0.2,0.1-0.4,0.1-0.6
				c0-0.2,0.1-0.4,0.1-0.6l0.3-1.4h0.9l0.3,1.4c0,0.2,0.1,0.4,0.1,0.6c0,0.2,0.1,0.4,0.1,0.6h0c0-0.2,0.1-0.4,0.1-0.6
				c0-0.2,0.1-0.4,0.1-0.6l0.3-1.4h0.8l-0.8,3.5h-0.9l-0.3-1.5c0-0.2-0.1-0.4-0.1-0.6c0-0.2-0.1-0.4-0.1-0.6h0
				c0,0.2-0.1,0.4-0.1,0.6c0,0.2-0.1,0.4-0.1,0.6l-0.3,1.5h-0.9l-0.9-3.5H33.8z"/>
			<path class="st0" d="M39.6,77.1h0.9l1.2,3.5h-0.9l-0.2-0.7h-1.2l-0.2,0.7h-0.9L39.6,77.1z M39.6,79.2h0.8l-0.1-0.4
				c0-0.1-0.1-0.3-0.1-0.4c0-0.2-0.1-0.3-0.1-0.4h0c0,0.1-0.1,0.3-0.1,0.4c0,0.1-0.1,0.3-0.1,0.4L39.6,79.2z"/>
			<path class="st0" d="M42.9,77.1h0.8l0.8,1.2c0.1,0.2,0.3,0.4,0.4,0.6c0.1,0.2,0.2,0.4,0.3,0.6h0c0-0.2,0-0.4,0-0.7
				c0-0.2,0-0.4,0-0.7v-1.1h0.8v3.5h-0.8l-0.8-1.2c-0.1-0.2-0.3-0.4-0.4-0.6c-0.1-0.2-0.2-0.4-0.3-0.6h0c0,0.2,0,0.4,0,0.7
				c0,0.2,0,0.4,0,0.6v1.1h-0.8L42.9,77.1L42.9,77.1z"/>
			<path class="st0" d="M47.4,77.1h2.3v0.6h-1.5v0.7h1.3v0.6h-1.3v0.8h1.5v0.6h-2.3V77.1z"/>
			<path class="st0" d="M52.2,77c0.2,0,0.4,0,0.6,0.1c0.2,0.1,0.3,0.1,0.5,0.2l-0.2,0.6c-0.1-0.1-0.3-0.1-0.4-0.2
				c-0.1,0-0.3-0.1-0.4-0.1c-0.2,0-0.3,0-0.4,0.1c-0.1,0.1-0.1,0.1-0.1,0.2c0,0.1,0,0.2,0.1,0.3c0.1,0.1,0.2,0.1,0.4,0.2l0.3,0.1
				c0.1,0,0.2,0.1,0.4,0.2c0.1,0.1,0.2,0.1,0.3,0.2c0.1,0.1,0.1,0.2,0.2,0.3c0,0.1,0.1,0.2,0.1,0.3c0,0.1,0,0.3-0.1,0.4
				c-0.1,0.1-0.1,0.2-0.3,0.3c-0.1,0.1-0.3,0.2-0.4,0.2c-0.2,0.1-0.4,0.1-0.6,0.1c-0.2,0-0.4,0-0.6-0.1c-0.2,0-0.4-0.1-0.5-0.2
				l0.2-0.6c0.2,0.1,0.3,0.1,0.5,0.2c0.1,0,0.3,0.1,0.5,0.1c0.2,0,0.3,0,0.4-0.1c0.1-0.1,0.1-0.1,0.1-0.3c0,0,0-0.1,0-0.1
				c0,0,0-0.1-0.1-0.1c0,0-0.1-0.1-0.2-0.1c-0.1,0-0.2-0.1-0.3-0.1l-0.3-0.1c-0.1,0-0.2-0.1-0.4-0.2c-0.1-0.1-0.2-0.1-0.3-0.2
				c-0.1-0.1-0.1-0.2-0.2-0.3s-0.1-0.2-0.1-0.4s0-0.3,0.1-0.4c0.1-0.1,0.1-0.2,0.3-0.3c0.1-0.1,0.3-0.2,0.4-0.2
				C51.8,77.1,51.9,77,52.2,77z"/>
			<path class="st0" d="M54.8,77.1h2.3v0.6h-1.5v0.7h1.3v0.6h-1.3v0.8h1.5v0.6h-2.3V77.1z"/>
		</g>
		<g>
			<path class="st0" d="M28.6,86.5v-3.5h0.8v1.3h1.2v-1.3h0.8v3.5h-0.8v-1.5h-1.2v1.5H28.6z"/>
			<path class="st0" d="M34.6,83c0.3,0,0.5,0,0.7,0.1c0.2,0.1,0.4,0.2,0.5,0.4c0.2,0.2,0.3,0.3,0.4,0.6c0.1,0.2,0.1,0.5,0.1,0.8
				c0,0.3,0,0.5-0.1,0.7c-0.1,0.2-0.2,0.4-0.4,0.6c-0.2,0.2-0.3,0.3-0.6,0.4c-0.2,0.1-0.4,0.1-0.7,0.1c-0.3,0-0.5,0-0.7-0.1
				c-0.2-0.1-0.4-0.2-0.5-0.3C33.2,86,33,85.8,33,85.5c-0.1-0.2-0.1-0.5-0.1-0.8c0-0.3,0-0.5,0.1-0.7c0.1-0.2,0.2-0.4,0.4-0.6
				c0.2-0.2,0.3-0.3,0.6-0.4C34.1,83,34.3,83,34.6,83z M33.7,84.8c0,0.2,0,0.4,0.1,0.5c0,0.1,0.1,0.3,0.2,0.4s0.2,0.2,0.3,0.2
				c0.1,0,0.2,0.1,0.3,0.1s0.2,0,0.3-0.1c0.1,0,0.2-0.1,0.3-0.2c0.1-0.1,0.1-0.2,0.2-0.4c0-0.1,0.1-0.3,0.1-0.5c0-0.2,0-0.4-0.1-0.5
				c0-0.1-0.1-0.3-0.2-0.4c-0.1-0.1-0.2-0.2-0.3-0.2c-0.1,0-0.2-0.1-0.3-0.1s-0.2,0-0.3,0.1c-0.1,0.1-0.2,0.1-0.3,0.2
				c-0.1,0.1-0.1,0.2-0.2,0.4C33.7,84.4,33.7,84.6,33.7,84.8z"/>
			<path class="st0" d="M39.8,83.1v0.6h-0.9v2.8h-0.8v-2.8h-0.9v-0.6H39.8z"/>
			<path class="st0" d="M41,83.1h1.2c0.2,0,0.4,0,0.6,0.1c0.2,0,0.3,0.1,0.4,0.2c0.1,0.1,0.2,0.2,0.3,0.3c0.1,0.1,0.1,0.3,0.1,0.4
				c0,0.2,0,0.4-0.1,0.5c-0.1,0.1-0.2,0.3-0.3,0.4c-0.1,0.1-0.3,0.2-0.5,0.2c-0.2,0-0.4,0.1-0.6,0.1h-0.4v1.2H41L41,83.1L41,83.1z
				 M41.8,84.7h0.3c0.1,0,0.2,0,0.2,0s0.1,0,0.2-0.1c0.1,0,0.1-0.1,0.1-0.1c0-0.1,0.1-0.1,0.1-0.2c0-0.2-0.1-0.3-0.2-0.4
				c-0.1-0.1-0.3-0.1-0.4-0.1h-0.3L41.8,84.7L41.8,84.7z"/>
			<path class="st0" d="M46.2,83c0.3,0,0.5,0,0.7,0.1c0.2,0.1,0.4,0.2,0.5,0.4c0.2,0.2,0.3,0.3,0.4,0.6c0.1,0.2,0.1,0.5,0.1,0.8
				c0,0.3,0,0.5-0.1,0.7c-0.1,0.2-0.2,0.4-0.4,0.6s-0.3,0.3-0.6,0.4c-0.2,0.1-0.4,0.1-0.7,0.1c-0.3,0-0.5,0-0.7-0.1
				c-0.2-0.1-0.4-0.2-0.5-0.3c-0.2-0.2-0.3-0.3-0.4-0.6c-0.1-0.2-0.1-0.5-0.1-0.8c0-0.3,0-0.5,0.1-0.7c0.1-0.2,0.2-0.4,0.4-0.6
				s0.3-0.3,0.6-0.4C45.7,83,45.9,83,46.2,83z M45.3,84.8c0,0.2,0,0.4,0.1,0.5c0,0.1,0.1,0.3,0.2,0.4s0.2,0.2,0.3,0.2
				c0.1,0,0.2,0.1,0.3,0.1s0.2,0,0.3-0.1c0.1,0,0.2-0.1,0.3-0.2c0.1-0.1,0.1-0.2,0.2-0.4c0-0.1,0.1-0.3,0.1-0.5c0-0.2,0-0.4-0.1-0.5
				c0-0.1-0.1-0.3-0.2-0.4c-0.1-0.1-0.2-0.2-0.3-0.2c-0.1,0-0.2-0.1-0.3-0.1s-0.2,0-0.3,0.1c-0.1,0.1-0.2,0.1-0.3,0.2
				c-0.1,0.1-0.1,0.2-0.2,0.4C45.3,84.4,45.3,84.6,45.3,84.8z"/>
			<path class="st0" d="M51.4,83.1v0.6h-0.9v2.8h-0.8v-2.8h-0.9v-0.6H51.4z"/>
		</g>
		<g>
			<path class="st0" d="M10.2,73.5c0.1,0,0.1-0.1,0.2-0.2s0.1-0.3,0.1-0.6v-6c0-0.3,0-0.5-0.1-0.6c-0.1-0.1-0.1-0.2-0.2-0.2H13
				c0,0-0.1,0.1-0.1,0.2c0,0.1,0.1,0.3,0.2,0.6c0.1,0.1,0.1,0.3,0.2,0.5c0.1,0.2,0.2,0.5,0.4,0.8c0.1,0.3,0.3,0.6,0.4,1
				c0.1,0.3,0.3,0.7,0.5,1c0.2,0.3,0.3,0.7,0.4,1h0c0.1-0.3,0.3-0.6,0.4-1c0.2-0.3,0.3-0.7,0.5-1c0.2-0.3,0.3-0.7,0.4-1
				c0.1-0.3,0.3-0.6,0.4-0.8c0.1-0.2,0.2-0.4,0.2-0.5c0.1-0.3,0.2-0.5,0.2-0.6c0-0.1,0-0.2,0-0.2h2.7c-0.1,0-0.1,0.1-0.2,0.2
				s-0.1,0.3-0.1,0.6v6c0,0.3,0,0.5,0.1,0.6c0.1,0.1,0.1,0.2,0.2,0.2h-2.2c0.1,0,0.1-0.1,0.2-0.2c0.1-0.1,0.1-0.3,0.1-0.6v-4h0
				c-0.1,0.3-0.3,0.5-0.4,0.8c-0.1,0.3-0.3,0.6-0.4,0.9c-0.1,0.3-0.3,0.6-0.4,0.9s-0.3,0.6-0.4,0.8c-0.1,0.2-0.2,0.4-0.3,0.6
				c-0.1,0.3-0.2,0.4-0.2,0.6c0,0.1,0,0.2,0.1,0.2h-1.6c0,0,0.1-0.1,0.1-0.2c0-0.1-0.1-0.3-0.2-0.6c-0.1-0.1-0.1-0.3-0.3-0.6
				s-0.2-0.5-0.3-0.8c-0.1-0.3-0.3-0.6-0.4-0.9c-0.1-0.3-0.3-0.6-0.4-0.9c-0.1-0.3-0.3-0.6-0.4-0.8h0v4c0,0.3,0,0.5,0.1,0.6
				c0.1,0.1,0.1,0.2,0.2,0.2L10.2,73.5L10.2,73.5z"/>
			<path class="st0" d="M20.9,73.5c0,0,0.1-0.1,0.2-0.2c0.1-0.1,0.2-0.3,0.3-0.6c0.1-0.1,0.1-0.3,0.3-0.6c0.1-0.3,0.3-0.7,0.4-1.1
				c0.2-0.4,0.3-0.8,0.5-1.3c0.2-0.4,0.3-0.9,0.5-1.3c0.2-0.4,0.3-0.8,0.4-1.1c0.1-0.3,0.2-0.5,0.3-0.7c0.1-0.3,0.2-0.5,0.2-0.6
				c0-0.1,0-0.2,0-0.2h2.5c0,0,0,0.1,0,0.2c0,0.1,0.1,0.3,0.2,0.6c0,0.1,0.1,0.4,0.2,0.7c0.1,0.3,0.3,0.7,0.4,1.1
				c0.2,0.4,0.3,0.8,0.5,1.3c0.2,0.4,0.3,0.9,0.5,1.3c0.2,0.4,0.3,0.8,0.4,1.1c0.1,0.3,0.2,0.5,0.3,0.7c0.1,0.3,0.2,0.5,0.3,0.6
				c0.1,0.1,0.2,0.2,0.2,0.2h-2.6c0.1,0,0.1-0.1,0.2-0.2c0-0.1,0-0.3,0-0.6c0-0.1,0-0.1,0-0.1c0,0,0-0.1,0-0.2
				c0-0.1-0.1-0.2-0.1-0.3c0-0.1-0.1-0.1-0.2-0.1c-0.1,0-0.2,0-0.4,0h-2c-0.2,0-0.4,0-0.5,0c-0.1,0-0.2,0-0.2,0.1
				c0,0.1-0.1,0.1-0.1,0.3c0,0,0,0.1,0,0.2c0,0.1,0,0.1,0,0.2c-0.1,0.3-0.1,0.5,0,0.6c0,0.1,0.1,0.2,0.1,0.2H20.9z M24.4,70.7h1.4
				c0.2,0,0.3,0,0.4-0.1c0,0,0-0.1,0-0.3c-0.1-0.3-0.2-0.5-0.3-0.8c-0.1-0.3-0.2-0.5-0.3-0.8c-0.1-0.3-0.2-0.5-0.2-0.7
				c-0.1-0.2-0.1-0.4-0.2-0.6h0c-0.1,0.3-0.2,0.6-0.3,1c-0.1,0.3-0.2,0.7-0.3,0.9c-0.1,0.3-0.2,0.6-0.3,1C24,70.4,24,70.5,24,70.6
				C24,70.6,24.1,70.7,24.4,70.7z"/>
			<path class="st0" d="M30.4,73.5c0.1,0,0.1-0.1,0.2-0.2s0.1-0.3,0.1-0.6v-6c0-0.3,0-0.5-0.1-0.6c-0.1-0.1-0.1-0.2-0.2-0.2h2.3
				c-0.1,0-0.1,0.1,0,0.2c0,0.1,0.2,0.3,0.4,0.6c0.1,0.1,0.2,0.2,0.3,0.4c0.1,0.2,0.3,0.4,0.5,0.6c0.2,0.3,0.4,0.5,0.6,0.8
				c0.2,0.3,0.5,0.6,0.7,0.9s0.5,0.6,0.7,0.8h0v-3.5c0-0.3,0-0.5-0.1-0.6c-0.1-0.1-0.1-0.2-0.2-0.2h2.3c-0.1,0-0.1,0.1-0.2,0.2
				c-0.1,0.1-0.1,0.3-0.1,0.6v6c0,0.3,0,0.5,0.1,0.6c0.1,0.1,0.1,0.2,0.2,0.2h-2c0,0,0.1-0.1,0-0.2c0-0.1-0.2-0.3-0.4-0.6
				c-0.1-0.1-0.3-0.3-0.4-0.6c-0.2-0.2-0.4-0.5-0.6-0.8c-0.2-0.3-0.4-0.6-0.7-0.9s-0.5-0.6-0.7-0.9s-0.5-0.6-0.7-0.8h0v4.1
				c0,0.3,0,0.5,0.1,0.6c0.1,0.1,0.1,0.2,0.2,0.2L30.4,73.5L30.4,73.5z"/>
			<path class="st0" d="M41.9,73.5c0.1,0,0.1-0.1,0.1-0.2c0-0.1,0-0.3-0.1-0.5c0-0.1-0.1-0.3-0.2-0.6c-0.1-0.3-0.2-0.6-0.4-1
				c-0.1-0.4-0.3-0.8-0.5-1.3c-0.2-0.4-0.3-0.9-0.5-1.3s-0.3-0.8-0.4-1.1c-0.1-0.3-0.2-0.6-0.3-0.7c-0.1-0.3-0.2-0.5-0.3-0.6
				c-0.1-0.1-0.2-0.2-0.3-0.2h2.6c-0.1,0-0.1,0.1-0.1,0.2c0,0.1,0,0.3,0.1,0.6c0,0.1,0.1,0.3,0.2,0.6c0.1,0.3,0.2,0.6,0.3,0.9
				c0.1,0.4,0.2,0.7,0.4,1.2s0.3,0.8,0.4,1.3c0.1,0.4,0.3,0.8,0.4,1.2h0c0.1-0.4,0.2-0.8,0.3-1.2c0.1-0.4,0.2-0.8,0.3-1.2
				c0.1-0.4,0.2-0.8,0.3-1.2c0.1-0.4,0.2-0.7,0.2-1c0.1-0.3,0.1-0.5,0.1-0.6c0.1-0.3,0.1-0.5,0.1-0.6c0-0.1,0-0.2-0.1-0.2h2.9
				c0,0-0.1,0.1-0.1,0.2c0,0.1,0,0.3,0.1,0.6c0,0.1,0.1,0.3,0.1,0.6c0.1,0.3,0.1,0.6,0.2,0.9c0.1,0.4,0.2,0.7,0.3,1.2
				c0.1,0.4,0.2,0.8,0.3,1.2s0.2,0.8,0.3,1.2h0c0.1-0.4,0.3-0.8,0.4-1.2c0.1-0.4,0.3-0.8,0.4-1.2c0.1-0.4,0.3-0.8,0.4-1.2
				c0.1-0.4,0.2-0.7,0.3-0.9c0.1-0.3,0.1-0.4,0.2-0.6c0.1-0.3,0.1-0.5,0.1-0.6S50.4,66,50.4,66H53c-0.1,0-0.1,0.1-0.2,0.2
				c-0.1,0.1-0.2,0.3-0.3,0.6c-0.1,0.1-0.2,0.3-0.3,0.6c-0.1,0.3-0.3,0.7-0.4,1.1c-0.2,0.4-0.3,0.8-0.5,1.3s-0.3,0.9-0.5,1.3
				c-0.2,0.4-0.3,0.8-0.4,1.1c-0.1,0.3-0.2,0.5-0.2,0.6C50,73,50,73.2,50,73.3c0,0.1,0,0.2,0.1,0.2h-2.7c0,0,0.1-0.1,0.1-0.2
				c0-0.1,0-0.3-0.1-0.6c0-0.1-0.1-0.3-0.2-0.6c-0.1-0.3-0.2-0.6-0.3-1c-0.1-0.4-0.2-0.8-0.3-1.2c-0.1-0.4-0.2-0.9-0.3-1.3
				c-0.1-0.4-0.2-0.9-0.3-1.3h0c-0.1,0.4-0.2,0.8-0.3,1.3c-0.1,0.4-0.2,0.9-0.3,1.3c-0.1,0.4-0.2,0.9-0.3,1.3
				c-0.1,0.4-0.2,0.7-0.3,1c-0.1,0.3-0.1,0.5-0.1,0.6c-0.1,0.3-0.1,0.5-0.1,0.6s0,0.2,0.1,0.2L41.9,73.5L41.9,73.5z"/>
			<path class="st0" d="M52.3,73.5c0,0,0.1-0.1,0.2-0.2c0.1-0.1,0.2-0.3,0.3-0.6c0.1-0.1,0.1-0.3,0.3-0.6c0.1-0.3,0.3-0.7,0.4-1.1
				c0.2-0.4,0.3-0.8,0.5-1.3s0.3-0.9,0.5-1.3c0.2-0.4,0.3-0.8,0.4-1.1c0.1-0.3,0.2-0.5,0.3-0.7c0.1-0.3,0.2-0.5,0.2-0.6
				c0-0.1,0-0.2,0-0.2h2.5c0,0,0,0.1,0,0.2c0,0.1,0.1,0.3,0.2,0.6c0,0.1,0.1,0.4,0.2,0.7s0.3,0.7,0.4,1.1c0.2,0.4,0.3,0.8,0.5,1.3
				c0.2,0.4,0.3,0.9,0.5,1.3c0.2,0.4,0.3,0.8,0.4,1.1c0.1,0.3,0.2,0.5,0.3,0.7c0.1,0.3,0.2,0.5,0.3,0.6c0.1,0.1,0.2,0.2,0.2,0.2
				h-2.6c0.1,0,0.1-0.1,0.2-0.2c0-0.1,0-0.3,0-0.6c0-0.1,0-0.1,0-0.1c0,0,0-0.1,0-0.2c0-0.1-0.1-0.2-0.1-0.3c0-0.1-0.1-0.1-0.2-0.1
				c-0.1,0-0.2,0-0.4,0h-2c-0.2,0-0.4,0-0.5,0c-0.1,0-0.2,0-0.2,0.1c0,0.1-0.1,0.1-0.1,0.3c0,0,0,0.1,0,0.2c0,0.1,0,0.1,0,0.2
				c-0.1,0.3-0.1,0.5,0,0.6c0,0.1,0.1,0.2,0.1,0.2H52.3z M55.8,70.7h1.4c0.2,0,0.3,0,0.4-0.1c0,0,0-0.1,0-0.3
				c-0.1-0.3-0.2-0.5-0.3-0.8c-0.1-0.3-0.2-0.5-0.3-0.8c-0.1-0.3-0.2-0.5-0.2-0.7c-0.1-0.2-0.1-0.4-0.2-0.6h0
				c-0.1,0.3-0.2,0.6-0.3,1c-0.1,0.3-0.2,0.7-0.3,0.9s-0.2,0.6-0.3,1c-0.1,0.1-0.1,0.2-0.1,0.3C55.5,70.6,55.6,70.7,55.8,70.7z"/>
			<path class="st0" d="M61.9,73.5c0.1,0,0.1-0.1,0.2-0.2c0.1-0.1,0.1-0.3,0.1-0.6v-6c0-0.3,0-0.5-0.1-0.6C62,66.1,61.9,66,61.9,66
				h2.3c-0.1,0-0.1,0.1-0.2,0.2s-0.1,0.3-0.1,0.6v1.9c0,0.2,0,0.3,0.1,0.3c0,0,0.2,0.1,0.4,0.1h3c0.2,0,0.4,0,0.4,0
				c0,0,0.1-0.1,0.1-0.3v-1.9c0-0.3,0-0.5-0.1-0.6c-0.1-0.1-0.1-0.2-0.2-0.2h2.3c-0.1,0-0.1,0.1-0.2,0.2s-0.1,0.3-0.1,0.6v6
				c0,0.3,0,0.5,0.1,0.6c0.1,0.1,0.1,0.2,0.2,0.2h-2.3c0.1,0,0.1-0.1,0.2-0.2c0.1-0.1,0.1-0.3,0.1-0.6v-1.9c0-0.2,0-0.3-0.1-0.3
				s-0.2,0-0.4,0h-3c-0.2,0-0.4,0-0.4,0.1c0,0-0.1,0.1-0.1,0.3v1.9c0,0.3,0,0.5,0.1,0.6c0.1,0.1,0.1,0.2,0.2,0.2L61.9,73.5
				L61.9,73.5z"/>
		</g>
		<g>
			<g>
				<path class="st0" d="M12.2,2.4c1.2,0.1,3,0,4-0.3c-0.1-0.2-0.2-0.4-0.3-0.6c0-0.1-0.1-0.2-0.1-0.3c0-0.2,0.1-0.3,0.3-0.2
					c0.1,0,0.2,0.1,0.3,0.2c0.4,0.3,0.7,0.6,1.1,0.9c0.2,0.2,0.4,0.4,0.6,0.6c0.1,0.1,0.3,0.2,0.3,0.4c0,0.2-0.1,0.3-0.3,0.3
					c-0.3-0.1-0.6-0.3-0.8-0.5c-0.1-0.1-0.2-0.1-0.3-0.2c-0.1-0.1-0.2-0.1-0.3,0c-0.7,0.5-1.5,0.5-2.4,0.5c-1.1,0-2.3-0.1-3.4-0.1
					c-0.1,0-0.3,0-0.4-0.1c-0.2-0.1-0.2-0.3-0.1-0.4c0.1-0.1,0.2-0.1,0.4-0.2c0.9-0.3,1.8-0.7,2.5-1.2c0.3-0.2,0.5-0.4,0.8-0.6
					c0.2-0.1,0.3-0.2,0.5-0.1c0.4,0.1,0.5,0.5,0.2,0.7c-0.1,0.1-0.3,0.3-0.5,0.4C14,1.8,12.6,2.2,12.2,2.4z"/>
				<path class="st0" d="M17.1,4.4c0,0.4,0,0.8-0.1,1.1C17,6.1,16.5,6.3,16,6c-0.1-0.1-0.2-0.1-0.3-0.1c-1,0-1.9,0-2.9,0
					c-0.1,0-0.2,0-0.3,0.1C12.5,6,12.4,6,12.3,6C12,6.1,11.7,6,11.7,5.7c-0.1-0.6-0.1-1.2-0.1-1.8c0-0.4,0.2-0.6,0.6-0.6
					c0.1,0,0.1,0,0.2,0c0.1,0.1,0.3,0.1,0.4,0.1c0.5,0,1.1,0,1.6,0.1c0.5,0,0.9,0,1.4,0c0.1,0,0.2-0.1,0.3-0.1
					c0.1,0,0.3-0.1,0.4-0.1c0.3,0,0.6,0.2,0.6,0.5C17.1,4,17.1,4.2,17.1,4.4C17.1,4.4,17.1,4.4,17.1,4.4z M12.3,4c0,0.3,0,0.6,0,0.9
					c0,0.1,0.1,0.2,0.2,0.2c0.3,0,0.6,0.1,0.9,0.1c0.8,0,1.5,0,2.2,0c0,0,0.1,0,0.1,0C15.9,5.2,16,5.1,16,5c0-0.2,0-0.4,0-0.6
					c0-0.2,0-0.3-0.3-0.3C15,4,14.2,4,13.4,4C13.1,3.9,12.7,4,12.3,4z"/>
			</g>
			<g>
				<path class="st0" d="M63.5,57.3c0-0.1,0-0.3,0-0.4c-0.1,0-0.2,0-0.3,0.1c-0.1,0-0.2,0.1-0.3,0c-0.1-0.1,0-0.2,0.1-0.3
					c0-0.1,0.1-0.1,0.1-0.2c-0.1,0-0.2,0.1-0.3,0.1c-0.2,0.1-0.4,0.2-0.6,0.2c-0.3,0-0.5-0.3-0.5-0.6c0-0.1,0.1-0.1,0.2-0.1
					c0.9-0.1,1.5-0.7,1.9-1.5c0.1-0.2,0.4-0.3,0.6-0.1c0.1,0.1,0.1,0.2,0.1,0.2c-0.1,0.2,0,0.3,0.1,0.4c0.1,0.1,0.2,0.2,0.2,0.2
					c0.2,0.2,0.4,0.3,0.6,0.4c0.2,0.1,0.3,0.2,0.2,0.4c-0.1,0.3-0.4,0.4-0.7,0.2c-0.2-0.1-0.4-0.3-0.5-0.4c-0.1-0.1-0.2-0.2-0.3-0.3
					c-0.3,0.3-0.6,0.5-0.9,0.8c0.1,0,0.2,0.1,0.3,0.1c0.4,0,0.7,0,1.1,0c0.1,0,0.2,0,0.3,0c0.1,0,0.2,0.1,0.2,0.2
					c0,0.1-0.1,0.2-0.2,0.2c-0.1,0-0.3,0-0.4,0c0,0.1,0,0.3,0,0.4c0.1,0,0.2,0,0.3,0c0.1,0,0.3,0,0.4,0.1c0.1,0,0.2,0.1,0.1,0.1
					c0,0.1-0.1,0.1-0.1,0.2c-0.1,0-0.2,0.1-0.3,0.1c-0.1,0-0.2,0-0.3,0c-0.1,0.2-0.1,0.3,0,0.5c0.1-0.1,0.1-0.1,0.1-0.2
					c0.1-0.1,0.1-0.1,0.2-0.1c0.1-0.1,0.2-0.1,0.3,0c0.1,0.1,0.1,0.2,0,0.3c0,0.1-0.1,0.2-0.2,0.3c0.3,0.1,0.3,0.1,0.4-0.2
					c0.1-0.3,0.1-0.6,0.1-0.9c0-0.2-0.1-0.5-0.1-0.7c-0.1-0.3,0-0.3,0.2-0.4c0.4-0.2,0.4-0.2,0.3-0.6c0-0.3-0.1-0.6-0.1-0.9
					c0-0.3,0.2-0.5,0.5-0.4c0.3,0.1,0.5,0.1,0.7,0c0.4-0.1,0.9,0,1.3,0c0.4,0.1,0.6,0.2,0.6,0.6c0,0.3,0,0.6,0.1,0.9
					c0,0.1,0,0.2,0,0.3c0.2,0,0.3,0,0.5,0c0.3,0,0.4,0.1,0.4,0.4c0,0.3,0,0.6,0,1c0,0.5,0.1,1,0.2,1.5c0,0.1,0,0.1,0,0.2
					c0,0.2,0,0.3-0.2,0.4C69.4,59.9,69.2,60,69,60c-0.3,0.1-0.4,0-0.3-0.3c0-0.7,0.1-1.3,0.1-2c0-0.2,0-0.4,0-0.6c-1,0-1.9,0-2.8,0
					c0,0.2,0,0.3,0,0.5c-0.1,0.6-0.1,1.2-0.3,1.7c-0.1,0.2-0.2,0.4-0.4,0.5c-0.3,0.2-0.7,0.2-1,0.1c-0.2-0.1-0.2-0.2,0-0.4
					c0.1-0.1,0.2-0.2,0.3-0.3c0,0,0,0,0-0.1c-0.2,0-0.3,0.1-0.5,0.1c-0.6,0.1-1.1,0.3-1.6,0.5c-0.1,0-0.2,0.1-0.3,0.1
					c-0.3,0.1-0.5-0.1-0.4-0.4c0.1-0.3,0.3-0.6,0.6-0.6c0.1,0,0.3,0,0.5-0.1c-0.1-0.1-0.2-0.1-0.2-0.2c-0.2-0.2-0.2-0.4-0.1-0.5
					c0.1-0.1,0.4-0.1,0.5,0c0.1,0.1,0.2,0.3,0.3,0.5c0.1-0.3,0.1-0.6,0.1-0.9c-0.2,0-0.4,0-0.5,0.1c-0.1,0-0.2,0-0.3,0
					c-0.2,0-0.3-0.1-0.2-0.3c0.1-0.1,0.2-0.2,0.3-0.3c0,0,0.1,0,0.2,0c0.1,0,0.2,0,0.3,0C63.3,57.3,63.4,57.3,63.5,57.3z M66.7,56.5
					c0-0.3,0-0.5,0.1-0.7c0-0.3,0-0.3,0.3-0.3c0.2,0,0.5,0,0.7,0c0.1,0,0.2,0,0.2-0.2c0-0.1-0.1-0.2-0.2-0.2c-0.2,0-0.5,0-0.7,0
					c-0.2,0-0.4,0-0.7,0c0,0.4,0,0.7,0,1C66.4,56.4,66.4,56.5,66.7,56.5z M67.5,56.5c0.2,0,0.4,0,0.6-0.1c0-0.1,0-0.3-0.1-0.4
					c-0.2,0-0.4,0.1-0.6,0.1C67.5,56.3,67.5,56.4,67.5,56.5z"/>
				<path class="st0" d="M66.6,57.4c0.1,0,0.1,0,0.1,0c0.2,0.1,0.4,0,0.6,0c0.3,0,0.5,0,0.8,0c0.3,0,0.5,0.2,0.4,0.5
					c0,0.3-0.1,0.6-0.2,0.8C68.2,59,68.2,59,68,59c-0.3,0-0.7,0-1,0c-0.1,0-0.2,0-0.2,0.1c-0.2,0.1-0.3,0-0.3-0.1
					c-0.1-0.3-0.1-0.6-0.2-0.9c0-0.1,0-0.2,0-0.3c0-0.2,0-0.3,0.3-0.3C66.5,57.4,66.5,57.4,66.6,57.4z M66.9,58.5c0.3,0,0.5,0,0.8,0
					c0.1,0,0.2-0.1,0.2-0.2c0-0.1,0-0.3-0.1-0.3c-0.3-0.1-0.6-0.1-0.9,0C66.8,58.2,66.8,58.3,66.9,58.5z"/>
			</g>
			<g>
				<path class="st0" d="M14.6,57.6c-0.2,0.2-0.3,0.4-0.4,0.6c-0.3,0.4-0.6,0.8-0.9,1.2c-0.1,0.1-0.2,0.2-0.4,0.3
					c-0.2,0.2-0.5,0.3-0.8,0.3c-0.4,0-0.8,0-1.2-0.1c-0.2-0.1-0.4-0.1-0.5-0.3c-0.2-0.2-0.1-0.5,0.2-0.5c0.2,0,0.5-0.1,0.7-0.1
					c0.8-0.1,1.4-0.5,1.9-1.2c0.5-0.7,0.7-1.4,0.7-2.2c0-0.2,0-0.4-0.1-0.6c0-0.3,0-0.4,0.3-0.6c0.2-0.1,0.5-0.1,0.6,0
					c0.1,0.1,0.2,0.2,0.2,0.4c0.2,0.6,0.3,1.2,0.1,1.8c-0.1,0.2,0,0.3,0.1,0.4c0.7,0.7,1.4,1.2,2.3,1.5c0.5,0.2,1,0.4,1.5,0.4
					c0.3,0,0.4,0.2,0.2,0.4c-0.3,0.5-0.8,0.7-1.4,0.8c-0.2,0-0.4,0-0.6-0.1c-0.5-0.2-1-0.4-1.4-0.9c-0.3-0.4-0.6-0.7-0.8-1.2
					C14.8,57.8,14.7,57.7,14.6,57.6z"/>
				<path class="st0" d="M15.7,56.6c0-0.1,0.1-0.1,0.1-0.2c0.1-0.2,0.1-0.4,0.2-0.7c0-0.1,0-0.1,0-0.2c0.1-0.4,0.4-0.7,0.8-0.6
					c0.5,0.1,0.7,0.6,0.6,1c-0.2,0.5-0.8,0.9-1.3,0.9C15.9,56.8,15.9,56.8,15.7,56.6z"/>
				<path class="st0" d="M13.3,56.7c0,0.2-0.1,0.2-0.2,0.2c-0.6-0.1-1-0.4-1.3-0.9c-0.2-0.4,0-0.8,0.4-0.9c0.2,0,0.4,0,0.5,0.2
					C12.9,55.6,13.3,56.3,13.3,56.7z"/>
			</g>
			<g>
				<path class="st0" d="M65.2,1.8c0-0.3,0-0.5,0.1-0.7c0-0.2,0.1-0.4,0.3-0.4c0.2-0.1,0.5-0.1,0.6,0.1c0.1,0.1,0.1,0.2,0.1,0.3
					c0,0.2,0,0.5,0,0.8c0.1,0,0.1,0,0.2,0c0.5,0,1,0,1.6,0c0.1,0,0.2,0,0.2,0c0.2,0,0.3,0.2,0.2,0.4c-0.1,0.1-0.1,0.2-0.2,0.2
					c-0.2,0.1-0.4,0.2-0.6,0.2c-0.3,0-0.6,0-0.9,0c-0.1,0-0.3,0-0.4,0c0,0.1,0,0.2,0,0.2c0.1,0.8,0.5,1.5,1.2,1.9
					c0.4,0.2,0.8,0.3,1.2,0.5c0.3,0.1,0.5,0.1,0.8,0c0.1,0,0.1,0,0.2,0c0.1,0,0.2,0.1,0.1,0.2c0,0,0,0.1-0.1,0.1
					c-0.4,0.4-0.9,0.8-1.5,0.9c-0.3,0.1-0.5,0-0.7-0.1c-0.3-0.2-0.5-0.4-0.8-0.7c-0.7-0.7-1.2-1.5-1.4-2.5c0-0.1,0-0.1,0-0.2
					c-0.1-0.3-0.1-0.3-0.4-0.3c-0.7,0-1.3,0.1-2,0.1c-0.4,0-0.8,0-1.2,0c0,0,0,0,0,0c-0.3,0-0.5-0.2-0.6-0.5c0-0.3,0.3-0.5,0.5-0.6
					c0.2,0,0.4,0,0.6,0c0.7,0.1,1.5,0.1,2.2,0.1C64.7,1.8,65,1.8,65.2,1.8z"/>
				<path class="st0" d="M63.3,4.1c-0.2,0-0.4,0-0.6,0c-0.2,0-0.5,0-0.7,0c-0.3,0-0.4-0.2-0.3-0.5c0.1-0.4,0.3-0.5,0.6-0.4
					c0.8,0.1,1.6,0.1,2.4,0.1c0.1,0,0.2,0,0.3,0.1c0.2,0.1,0.2,0.3,0.1,0.4C65.1,4,65,4,64.9,4.1c-0.2,0-0.4,0.1-0.6,0.1
					c0,0.3,0,0.6,0,0.9c0.3,0,0.5,0,0.8,0c0.3,0,0.6,0,0.9,0c0.2,0,0.3,0.1,0.3,0.3c0,0.1-0.1,0.3-0.3,0.3c-0.1,0-0.2,0.1-0.3,0.1
					c-0.4,0-0.9,0-1.3,0.1c-0.9,0-1.8,0-2.7,0.2c-0.1,0-0.2,0-0.3,0c-0.3,0-0.4-0.2-0.4-0.5s0.2-0.5,0.4-0.6c0.2-0.1,0.5,0,0.7,0.1
					c0.3,0.1,0.5,0.2,0.8,0.1c0.2,0,0.3,0,0.3-0.3C63.4,4.6,63.5,4.4,63.3,4.1z"/>
				<path class="st0" d="M66.9,1.3c0,0,0.1-0.1,0.1-0.2c0.1-0.2,0.2-0.3,0.4-0.5c0.2-0.3,0.4-0.3,0.6-0.2c0.3,0.2,0.4,0.5,0.3,0.7
					c0,0.1-0.1,0.2-0.2,0.2C67.7,1.6,67.3,1.6,66.9,1.3C66.9,1.4,66.9,1.4,66.9,1.3z"/>
			</g>
		</g>
	</g>
</g>
</svg>
